<?xml version="1.0" encoding="UTF-8" standalone="no"?>
<!-- Created with Inkscape (http://www.inkscape.org/) -->

<svg
   xmlns:dc="http://purl.org/dc/elements/1.1/"
   xmlns:cc="http://creativecommons.org/ns#"
   xmlns:rdf="http://www.w3.org/1999/02/22-rdf-syntax-ns#"
   xmlns:svg="http://www.w3.org/2000/svg"
   xmlns="http://www.w3.org/2000/svg"
   xmlns:xlink="http://www.w3.org/1999/xlink"
   version="1.1"
   width="300"
   height="253.53604"
   viewBox="0 0 3333.3334 2817.0672"
   id="svg2">
  <metadata
     id="metadata1306">
    <rdf:RDF>
      <cc:Work
         rdf:about="">
        <dc:format>image/svg+xml</dc:format>
        <dc:type
           rdf:resource="http://purl.org/dc/dcmitype/StillImage" />
        <dc:title></dc:title>
      </cc:Work>
    </rdf:RDF>
  </metadata>
  <defs
     id="defs1304">
    <linearGradient
       x1="-765.0921"
       y1="2300.9683"
       x2="57.120152"
       y2="1889.9506"
       id="linearGradient5161"
       xlink:href="#linearGradient5149"
       gradientUnits="userSpaceOnUse"
       gradientTransform="translate(6710.2678,-257.87001)" />
    <linearGradient
       id="linearGradient5149">
      <stop
         id="stop5151"
         style="stop-color:#8c8c8c;stop-opacity:1"
         offset="0" />
      <stop
         id="stop5153"
         style="stop-color:#8c8c8c;stop-opacity:0"
         offset="1" />
    </linearGradient>
    <linearGradient
       x1="-660.91986"
       y1="3698.3496"
       x2="-1512.8531"
       y2="4109.3672"
       id="linearGradient5169"
       xlink:href="#linearGradient5163"
       gradientUnits="userSpaceOnUse"
       gradientTransform="translate(3729.234,-340.84397)" />
    <linearGradient
       id="linearGradient5163">
      <stop
         id="stop5165"
         style="stop-color:#c20f51;stop-opacity:1"
         offset="0" />
      <stop
         id="stop5167"
         style="stop-color:#c20f51;stop-opacity:0"
         offset="1" />
    </linearGradient>
    <linearGradient
       x1="-660.91986"
       y1="3698.3496"
       x2="-1512.8531"
       y2="4109.3672"
       id="linearGradient5191"
       xlink:href="#linearGradient5163"
       gradientUnits="userSpaceOnUse"
       gradientTransform="translate(6710.2678,-257.87001)" />
    <linearGradient
       x1="-660.91986"
       y1="3698.3496"
       x2="-1512.8531"
       y2="4109.3672"
       id="linearGradient3391"
       xlink:href="#linearGradient5163"
       gradientUnits="userSpaceOnUse"
       gradientTransform="translate(6710.2678,-257.87001)" />
    <linearGradient
       x1="-765.0921"
       y1="2300.9683"
       x2="57.120152"
       y2="1889.9506"
       id="linearGradient3393"
       xlink:href="#linearGradient5149"
       gradientUnits="userSpaceOnUse"
       gradientTransform="translate(6710.2678,-257.87001)" />
  </defs>
  <path
     d="m 1608.4105,2576.4162 c -26.801,-27.6516 -32.6962,-29.8308 -80.5242,-29.766 -28.3833,0.042 -85.4378,3.9461 -126.7877,8.6835 -70.8335,8.1155 -76.6822,7.545 -101.1278,-9.8616 -14.2703,-10.1614 -31.7115,-32.2742 -38.7583,-49.1394 -34.9713,-83.6981 3.0152,-276.2727 56.61,-286.9867 12.1358,-2.4262 49.6212,-12.5291 83.3009,-22.4511 51.206,-15.0852 74.2435,-17.1801 140.6548,-12.7905 131.8263,8.7132 149.5496,21.9932 133.0476,99.6909 -3.4852,16.4097 -6.4283,93.3222 -6.5402,170.9168 -0.2489,172.6764 -6.6073,186.6626 -59.8751,131.7041 z m 15.8563,-66.7591 c 5.1914,-6.2554 7.9584,-30.1695 6.1646,-53.2784 -3.1782,-40.9389 -4.2782,-39.5054 -32.8178,-44.5069 l -29.5627,-2.5783 -1.0979,47.6193 c -0.9662,41.9162 1.1954,48.5411 18.0488,55.3162 26.2079,10.5358 28.5118,10.385 39.265,-2.5719 z m -195.959,-5.583 c 32.3698,-0.1014 35.8591,-1.8203 26.5243,-13.068 -7.67,-9.2418 -19.5673,-11.5009 -41.5354,-7.8867 -24.2774,3.994 -28.083,2.9906 -17.9996,-4.7465 9.6537,-7.4074 10.1758,-10.8707 2.1311,-14.135 -5.8605,-2.3779 -10.6557,-9.758 -10.6557,-16.4001 0,-12.9403 -15.5833,-15.7931 -30.3301,-5.5525 -7.6105,5.285 -10.1079,37.0157 -5.0997,64.7978 0.7323,4.0632 9.9629,5.0745 20.5119,2.2475 10.5491,-2.827 35.9532,-5.1926 56.4532,-5.2565 z m 84.6279,-18.8704 c 5.6261,-5.6263 10.2294,-22.8884 10.2294,-38.3604 0,-28.118 -0.016,-28.131 -43.1258,-28.131 -26.5797,0 -41.1043,3.2706 -37.8572,8.5246 2.8976,4.6885 12.4877,8.5245 21.3113,8.5245 20.9063,0 30.4413,15.7162 13.4833,22.2236 -10.0648,3.8622 -11.1267,8.8742 -4.5026,21.2513 9.9121,18.5212 25.5949,20.834 40.4616,5.9674 z m -64.0392,-93.3773 c 26.4386,-14.1496 3.3374,-20.2032 -27.8306,-7.2931 -13.4815,5.5843 -32.747,7.5395 -42.812,4.3451 -17.1437,-5.4413 -17.4097,-6.792 -4.2111,-21.3762 10.849,-11.9881 12.0119,-19.4482 5.0573,-32.4431 -7.5073,-14.0275 -4.1335,-22.2224 19.993,-48.5622 15.9632,-17.4279 27.1229,-36.6411 24.7994,-42.6963 -2.6957,-7.0247 5.9757,-13.2496 23.9597,-17.1994 15.5015,-3.4048 32.4796,-12.0644 37.729,-19.2437 6.5237,-8.9215 14.6569,-10.8374 25.6955,-6.0525 8.883,3.8504 19.0278,6.3917 22.5441,5.6473 3.5164,-0.7441 6.3933,10.1547 6.3933,24.2203 0,21.5954 3.3152,25.5735 21.3115,25.5735 23.5435,0 28.4475,17.5635 9.3335,33.4268 -12.6835,10.5262 -13.2862,23.4098 -1.9451,41.5713 3.7999,6.085 4.8142,16.5231 2.2536,23.1956 -4.6561,12.1341 14.9399,38.1989 28.7184,38.1989 13.8186,0 34.0984,-26.8168 34.305,-45.3627 0.1142,-10.2142 2.4662,-38.7105 5.2275,-63.3251 3.3098,-29.5038 1.878,-44.7538 -4.2016,-44.7538 -5.0722,0 -7.1271,-5.4599 -4.5665,-12.1331 6.709,-17.4831 -20.2769,-28.9597 -82.8011,-35.214 -44.1321,-4.4145 -63.6727,-2.0008 -102.5569,12.6683 -26.4202,9.9671 -57.6782,27.0573 -69.462,37.9783 -19.8889,18.4322 -34.8427,26.6795 -20.6109,94.4521 l 0.8141,74.5959 37.0245,-5.0746 c 20.3634,-2.7911 45.4905,-9.6058 55.8382,-15.1436 z m 74.2686,-7.2123 c 0,-11.0299 -14.4943,-11.0299 -21.3113,0 -2.8976,4.6886 0.7118,8.5246 8.0214,8.5246 7.3095,0 13.2899,-3.836 13.2899,-8.5246 z m -4.2623,-25.5736 c 2.8977,-4.6885 -0.7117,-8.5245 -8.0213,-8.5245 -7.3095,0 -13.29,3.836 -13.29,8.5245 0,11.03 14.4944,11.03 21.3113,0 z m -70.1381,-43.1945 c -3.0654,-11.7226 -7.4482,-14.7592 -13.1185,-9.089 -10.1633,10.1634 -1.2506,38.4187 9.9377,31.5041 4.2815,-2.646 5.7128,-12.7328 3.1808,-22.4151 z m 75.9987,-64.923 c -6.1536,-2.4626 -13.506,-2.1597 -16.3387,0.6726 -2.8326,2.8325 2.2022,4.8474 11.1885,4.4772 9.9306,-0.4092 11.9505,-2.429 5.1502,-5.1502 z M 470.6633,2583.2092 c -10.45565,-2.0197 -26.56019,-13.2701 -35.78782,-25.0013 -15.26233,-19.4029 -20.47409,-20.7691 -57.71044,-15.128 -22.51303,3.4107 -65.867,6.7924 -96.34222,7.5149 -30.47523,0.7229 -77.87406,8.0131 -105.33061,16.201 -47.1518,14.0611 -50.81675,14.0765 -66.06516,0.277 -32.740656,-29.6299 -21.448825,-37.5749 100.71049,-70.8601 19.72924,-5.3754 38.17687,-13.5041 40.99453,-18.0634 9.30587,-15.057 -33.94493,-8.6493 -115.64711,17.1334 -44.309244,13.9827 -91.231764,25.4908 -104.272377,25.5735 -26.7303604,0.1697 -39.2676143,-20.0879 -25.6834227,-41.4994 8.1270277,-12.8102 30.5611807,-16.2992 121.8252397,-18.9459 21.68582,-0.629 36.38692,-14.0928 28.79708,-26.3735 -2.3116,-3.7402 -17.40266,-6.8004 -33.53565,-6.8004 -22.796599,0 -29.332744,-3.4941 -29.332744,-15.6807 0,-8.6245 9.590094,-20.0502 21.311274,-25.3908 24.74476,-11.2746 26.13087,-22.0323 8.32881,-64.6388 -15.10164,-36.1435 -8.7217,-54.19 27.55427,-77.9412 13.08381,-8.5663 30.7802,-24.4537 39.3253,-35.3052 21.78302,-27.6625 46.95717,-24.5967 82.42676,10.0385 28.4377,27.7688 32.47066,29.1752 60.03109,20.9344 60.31132,-18.0338 127.57732,-8.0261 127.57732,18.9804 0,4.3583 -11.50816,11.9359 -25.57367,16.8391 -23.99292,8.3641 -35.42697,24.2964 -17.43653,24.2964 4.47539,0 18.66322,10.5262 31.52849,23.3913 l 23.39135,23.3914 -23.00391,8.09 c -12.65216,4.4497 -23.00383,10.8104 -23.00383,14.1353 0,10.4436 52.13955,24.7618 90.17061,24.7618 39.33084,0 65.96209,17.9888 61.47678,41.5262 -2.20665,11.58 -19.10192,14.5904 -101.84444,18.1456 -78.04123,3.3531 -102.68541,7.4212 -115.54592,19.0736 -8.99089,8.1463 -28.5652,19.0707 -43.49827,24.2763 -33.6446,11.7287 -36.81671,29.2531 -3.70878,20.4893 12.89335,-3.413 45.24439,-5.555 71.89148,-4.7602 27.23429,0.8125 56.13546,-3.3549 66.00311,-9.5174 14.66888,-9.161 21.4177,-8.6597 41.05862,3.049 12.92736,7.7064 29.25835,24.1726 36.29103,36.5914 11.76018,20.7667 11.45823,23.5674 -3.76042,34.8849 -16.78738,12.4841 -19.81183,12.8402 -53.61031,6.3118 z M 246.72469,2427.2369 c 0,-9.4717 -5.68307,-17.0492 -12.78681,-17.0492 -7.10374,0 -12.78681,7.5775 -12.78681,17.0492 0,9.4716 5.68307,17.0491 12.78681,17.0491 7.10374,0 12.78681,-7.5775 12.78681,-17.0491 z m 63.93395,-17.0492 c 0,-6.2512 -4.79505,-12.9643 -10.65565,-14.9178 -6.33877,-2.1128 -10.65566,3.9307 -10.65566,14.9178 0,10.9872 4.31689,17.0309 10.65566,14.918 5.8606,-1.9536 10.65565,-8.6667 10.65565,-14.918 z m 55.4094,-13.2898 c 0,-6.7559 -3.836,-12.2838 -8.5245,-12.2838 -4.68851,0 -8.52451,7.8986 -8.52451,17.5523 0,9.6537 3.836,15.1813 8.52451,12.2837 4.6885,-2.8976 8.5245,-10.7961 8.5245,-17.5522 z m -127.86795,-71.9555 c 0,-4.6884 -3.60955,-8.5245 -8.02137,-8.5245 -4.41177,0 -10.39225,3.8361 -13.28994,8.5245 -2.89761,4.6886 0.71178,8.5246 8.02146,8.5246 7.30945,0 13.28985,-3.836 13.28985,-8.5246 z m 76.72085,-21.3113 c 0,-15.9099 -8.03901,-15.8357 -29.33403,0.2711 -15.86976,12.0033 -15.60798,12.5157 6.39336,12.5157 14.70868,0 22.94067,-4.5884 22.94067,-12.7868 z m 51.1471,4.2623 c 0,-4.6885 -3.60955,-8.5245 -8.02138,-8.5245 -4.41174,0 -10.39223,3.836 -13.28992,8.5245 -2.89761,4.6885 0.71187,8.5245 8.02146,8.5245 7.30944,0 13.28984,-3.836 13.28984,-8.5245 z m 764.47766,274.8523 c -10.1886,-1.6946 -28.8118,-13.3683 -41.3849,-25.9413 -20.1963,-20.1964 -29.9574,-23.009 -83.7696,-24.1377 -33.50033,-0.7023 -75.2911,2.7466 -92.86835,7.6649 -26.50519,7.4165 -42.62081,13.488 -61.43785,-6.9331 l -29.47902,-15.8755 -50.7516,24.2571 c -51.19251,24.4678 -74.0401,24.6385 -83.2558,0.6231 -8.65844,-22.5634 13.1971,-39.356 43.75982,-33.6223 19.77244,3.7093 28.80156,1.6694 32.23693,-7.2834 2.6246,-6.8397 18.50446,-15.0118 35.28849,-18.1608 36.1819,-6.7876 37.48261,-14.0058 9.20517,-51.0795 -27.82627,-36.4822 -27.17447,-60.6307 2.13107,-78.9642 12.89335,-8.0662 24.66734,-15.453 26.16431,-16.4156 1.49705,-0.9624 -2.10837,-9.4841 -8.01163,-18.9368 -8.69517,-13.9232 -8.57669,-19.7859 0.62396,-30.872 16.02981,-19.3147 8.55274,-22.6734 -28.0056,-12.5791 -21.11331,5.8296 -38.04804,18.4355 -50.66783,37.7161 -36.26614,55.408 -72.69242,52.5302 -87.52979,-6.915 -4.61775,-18.5005 -1.53691,-28.6321 13.60857,-44.7537 19.90684,-21.1898 53.92748,-27.7886 63.49069,-12.3149 6.62698,10.7226 44.22766,11.196 50.75238,0.6385 2.68045,-4.3372 0.30866,-17.9051 -5.27104,-30.1508 -8.37869,-18.3893 -7.78367,-24.6258 3.41798,-35.8275 11.03288,-11.0329 18.514,-11.8362 40.11236,-4.307 32.76243,11.4211 50.63064,5.2231 60.60961,-21.0238 9.81336,-25.8108 43.78353,-26.8654 66.87832,-2.076 14.6709,15.7473 20.30559,16.8634 43.79585,8.6747 46.597,-16.2438 81.2385,14.8034 38.3306,34.3537 -32.1118,14.6311 -17.3948,24.1441 37.3514,24.1441 40.9672,0 53.3513,3.6628 72.5525,21.4577 33.4374,30.9887 26.3003,50.373 -19.7642,53.6789 -20.5227,1.4727 -41.396,-1.4043 -46.3851,-6.3933 -6.4122,-6.4122 -5.4478,-9.1097 3.2892,-9.2019 10.5123,-0.1108 10.4487,-1.3662 -0.4262,-8.394 -7.0327,-4.545 -24.6382,-8.3223 -39.1232,-8.394 -20.0177,-0.099 -28.71,5.0787 -36.2293,21.5819 -14.65503,32.1641 -12.42053,37.9592 14.637,37.9592 36.6279,0 47.3584,17.7502 31.7581,52.5334 -19.4328,43.329 -34.6649,58.2856 -59.35892,58.2856 -12.37642,0 -22.50274,4.2518 -22.50274,9.4487 0,5.5038 8.00796,7.4925 19.18024,4.7635 17.12482,-4.1831 57.49722,14.9213 48.39392,22.9002 -2.002,1.7546 -40.0823,7.754 -84.62325,13.3317 -107.61541,13.4767 -122.18374,28.3325 -21.0808,21.4968 42.06971,-2.8441 82.24435,-7.3583 89.27715,-10.0312 29.15,-11.0791 97.369,-1.8287 116.0685,15.7387 35.4823,33.3336 28.73,75.9421 -10.9874,69.3359 z M 897.59656,2423.8866 c 0,-1.8426 -5.75404,-5.5581 -12.78679,-8.2571 -7.03276,-2.6987 -12.78672,-1.1909 -12.78672,3.3504 0,4.5412 5.75396,8.257 12.78672,8.257 7.03275,0 12.78679,-1.5076 12.78679,-3.3503 z m 88.81038,-10.3486 c 7.4163,-2.8459 13.48415,-10.3975 13.48415,-16.7815 0,-14.4397 -22.53698,-6.7779 -28.90935,9.8282 -5.22533,13.617 -3.71463,14.298 15.4252,6.9533 z m -97.33488,-28.9239 c -16.79441,-10.8533 -36.5436,-10.8533 -29.83596,0 2.89776,4.6886 13.67331,8.466 23.9458,8.3941 15.18402,-0.1065 16.28559,-1.6759 5.89016,-8.3941 z m 98.80533,-23.3795 c -5.91176,-5.9118 -22.08455,6.0995 -22.08455,16.402 0,5.6526 4.89123,5.0058 12.9928,-1.7179 7.14618,-5.9308 11.23733,-12.5386 9.09175,-14.6841 z m -56.18265,-66.8384 c 0,-15.0537 -18.35129,-12.432 -23.61999,3.3744 -1.85594,5.5675 2.69933,10.1228 10.12281,10.1228 7.4234,0 13.49718,-6.0737 13.49718,-13.4972 z m 1746.58106,284.0066 c -8.4561,-6.6457 -17.3378,-38.0298 -24.1515,-85.3418 -6.2825,-43.6242 -14.4617,-73.6022 -19.6131,-71.8849 -4.8601,1.6199 -13.6448,21.7936 -19.5214,44.8301 -10.1841,39.9219 -28.7878,63.525 -50.0694,63.525 -11.8108,0 -29.5748,-36.6302 -29.5748,-60.9847 0,-12.5103 -3.8778,-16.072 -13.4841,-12.3858 -7.4162,2.846 -15.0882,5.1744 -17.0491,5.1744 -1.9608,0 -3.565,21.0982 -3.565,46.8849 0,25.7867 -3.4754,46.8849 -7.7233,46.8849 -9.5057,0 -34.8994,-72.4359 -34.8994,-99.5506 0,-25.9882 -13.1543,-25.1373 -30.936,2.0009 -16.4909,25.1685 -81.3196,71.976 -99.687,71.976 -23.5657,0 -23.266,-25.9078 0.5727,-49.4894 20.2367,-20.0182 22.8738,-28.5421 20.5271,-66.3492 -1.4809,-23.8591 1.5669,-59.1987 6.773,-78.5326 10.927,-40.5801 4.2301,-78.4139 -13.8802,-78.4139 -7.2753,0 -11.2958,-6.1888 -9.6323,-14.8268 2.0419,-10.6024 14.6953,-16.5204 44.4125,-20.7712 22.8564,-3.2695 45.6363,-10.0236 50.6219,-15.0092 10.0115,-10.0114 39.4685,-11.9097 60.367,-3.8903 17.886,6.8636 17.1448,25.9192 -1.434,36.8688 -10.583,6.2374 -12.0346,10.71 -4.995,15.3918 6.072,4.0384 11.1002,39.6297 12.9564,91.7107 2.4906,69.877 5.4881,85.5838 16.7471,87.752 24.7689,4.77 38.6077,-20.0298 40.2162,-72.0699 0.8455,-27.3606 3.4739,-55.9839 5.8404,-63.6075 2.7766,-8.9445 -1.8295,-15.4649 -12.9854,-18.3823 -28.2877,-7.3972 -22.9986,-50.9436 9.5102,-78.2979 33.2477,-27.9761 44.297,-19.2379 40.1876,31.7819 -2.7327,33.927 -1.5321,36.9405 11.4782,28.8116 7.9918,-4.9932 16.6402,-6.9687 19.2188,-4.3901 6.2598,6.2598 -12.2841,58.6002 -20.7617,58.6002 -7.0792,0 -30.3438,50.3418 -24.7903,53.6425 1.8032,1.0718 11.3548,8.7134 21.226,16.9813 10.1161,8.4732 24.0649,12.6852 31.967,9.6528 23.0504,-8.8452 15.8447,-21.3877 -8.7422,-15.2169 -20.8594,5.2353 -19.8381,3.0716 12.2209,-25.8918 33.3565,-30.1356 42.2886,-55.5079 27.2931,-77.5282 -3.1928,-4.6886 -3.4733,-27.6224 -0.6232,-50.9644 4.4603,-36.5278 8.4538,-43.587 28.6684,-50.677 36.0649,-12.6491 45.4473,2.1912 31.9233,50.4941 -8.2647,29.5186 -8.5727,41.722 -1.2384,49.0562 13.7319,13.732 12.1408,44.9151 -2.93,57.4225 -22.5153,18.6861 -4.5327,27.6382 43.4715,21.6404 55.4902,-6.933 80.0405,-0.2976 80.0405,21.6347 0,12.894 -6.0215,16.4849 -27.7047,16.5223 -15.2377,0.026 -41.6585,3.9233 -58.7132,8.6604 -36.6106,10.1692 -41.1701,22.0228 -41.3337,107.4605 -0.1271,66.2608 -11.7005,88.3507 -36.2014,69.0955 z m -228.1756,-203.799 c 0,-24.7276 -14.3834,-18.0915 -26.3162,12.1416 -6.0142,15.2376 -12.6697,31.5407 -14.79,36.2292 -2.1203,4.6885 6.2611,-0.7748 18.6254,-12.1416 12.3645,-11.3664 22.4808,-27.6696 22.4808,-36.2292 z m -31.0155,-36.8746 c 2.989,-7.7889 0.016,-12.7868 -7.6124,-12.7868 -6.8856,0 -12.5194,5.7541 -12.5194,12.7868 0,7.0327 3.4257,12.7868 7.6126,12.7868 4.1869,0 9.8205,-5.7541 12.5192,-12.7868 z m 21.452,-46.0624 c 13.5652,-8.592 5.6412,-26.396 -11.7478,-26.396 -14.6293,0 -24.0868,14.1863 -17.0491,25.5735 6.4145,10.379 13.3942,10.5782 28.7969,0.8227 z m -418.6493,271.9626 c -3.0705,-2.3443 -18.0433,-18.7809 -33.273,-36.526 -43.6993,-50.9168 -33.6025,-99.5387 20.7654,-99.9971 8.5131,-0.068 21.1214,-3.6993 28.0184,-8.0611 24.5041,-15.4969 0.6955,-18.7881 -57.7378,-7.9811 -52.4272,9.6961 -60.8973,13.9902 -73.4045,37.2147 -34.0088,63.1505 -97.1568,105.1303 -99.7833,66.3344 -1.9059,-28.1487 1.998,-40.5108 16.8251,-53.2781 23.3769,-20.1294 27.7672,-41.6133 13.9604,-68.313 -16.4578,-31.8258 -16.0796,-50.2453 1.4288,-69.5918 17.7464,-19.6094 9.097,-29.4768 -16.2503,-18.5385 -28.27,12.1995 -49.0522,4.8092 -49.0522,-17.4433 0,-20.9776 14.0494,-37.2275 59.6718,-69.018 16.4097,-11.4345 38.2625,-26.9788 48.5619,-34.5427 16.2207,-11.9126 21.9231,-12.2056 42.6226,-2.1891 18.33,8.87 23.2108,16.4756 20.9522,32.6499 -1.6193,11.5974 -6.4829,22.3878 -10.8077,23.9785 -4.325,1.5907 -12.6244,7.653 -18.4432,13.4717 -5.8188,5.8189 -14.9887,9.1099 -20.378,7.3135 -5.3891,-1.7962 -12.6606,1.365 -16.1589,7.0256 -3.9299,6.3586 -2.7737,8.0748 3.0258,4.4905 9.7519,-6.027 8.4494,29.9303 -3.1594,87.2254 -7.2099,35.5831 8.6633,48.9108 36.5165,30.6607 10.4294,-6.8337 28.2083,-12.4248 39.5085,-12.4248 45.03,0 71.9851,-10.4951 81.6963,-31.8087 12.7131,-27.9024 7.5857,-31.948 -25.7584,-20.3242 -39.7958,13.8728 -84.4084,12.2997 -84.4084,-2.9767 0,-18.3703 27.8326,-30.1358 71.2892,-30.1358 46.5642,0 65.1034,-16.03 65.1034,-56.2921 0,-36.768 20.9928,-88.6686 35.7943,-88.4944 22.2043,0.2616 36.173,16.6523 44.8497,52.6275 7.2365,30.0035 12.7757,37.1876 30.1749,39.136 43.6833,4.8919 59.6717,11.06 59.6717,23.0209 0,11.2197 -15.3881,17.3615 -86.3109,34.4488 -16.5126,3.9784 -22.3768,10.8042 -22.3768,26.0458 0,18.6185 3.5736,20.6547 36.2511,20.6547 38.2231,0 59.0145,14.7275 50.8453,36.0162 -3.128,8.1515 -12.2991,11.1769 -25.9628,8.5649 -30.3547,-5.8027 -88.9233,12.8468 -118.6742,37.7884 -21.7757,18.2554 -22.4087,19.7819 -4.2623,10.28 25.5627,-13.3858 77.8144,-32.6703 89.0058,-32.8495 4.4124,-0.068 0.5762,5.5038 -8.5246,12.3875 -15.5475,11.7595 -14.6957,12.5321 14.0986,12.7868 32.1472,0.2847 58.8617,20.7029 58.8617,44.9894 0,18.4187 -31.8586,91.537 -40.1885,92.2362 -37.4696,3.1456 -150.2653,2.7354 -154.5842,-0.5617 z m 107.3963,-74.6969 c 15.2376,-11.6032 27.7048,-24.4772 27.7048,-28.6092 0,-10.4077 -29.7795,-9.3875 -71.4696,2.4488 -40.1529,11.3997 -59.0171,24.1365 -35.7483,24.1365 12.3642,0 13.5097,2.441 5.6114,11.9578 -7.6211,9.1829 -7.3687,12.9635 1.0873,16.2908 16.4858,6.487 41.8553,-2.65 72.8144,-26.2247 z m 736.0894,75.6477 c -23.3741,-15.2345 -3.3783,-33.9765 39.1487,-36.6944 l 40.9453,-2.6167 -2.7998,-35.5716 c -2.3081,-29.3244 0.4255,-37.2972 15.5632,-45.399 10.0997,-5.4051 25.7448,-17.2094 34.7668,-26.2314 9.0221,-9.022 22.0344,-16.4039 28.916,-16.4039 9.4432,0 10.7317,-4.7043 5.2535,-19.1801 -8.4653,-22.3684 -17.4594,-21.6554 -80.9394,6.4187 l -47.0221,20.7954 -13.0192,-18.5876 c -18.549,-26.4824 -7.5155,-35.1193 50.9501,-39.8832 5.4615,-0.445 7.0365,-20.7508 4.2167,-54.3573 -2.4761,-29.506 -3.3363,-59.6983 -1.912,-67.0943 2.6291,-13.6518 50.1256,-24.1759 109.1088,-24.1759 l 28.2445,0 -5.0481,42.6227 c -2.7764,23.4424 -2.4607,42.6227 0.7016,42.6227 17.5035,0 47.7724,-29.9638 47.7724,-47.2909 0,-21.4704 8.6252,-25.7006 68.1962,-33.4471 61.2554,-7.9653 62.8936,-4.6246 57.6199,117.4883 -2.8542,66.0898 -1.3633,109.8664 3.922,115.1514 5.6858,5.6862 3.2714,17.4233 -7.2471,35.2297 -13.76,23.2938 -14.1515,27.7287 -3.0672,34.7365 6.9885,4.4184 23.5078,8.0923 36.7093,8.164 29.9364,0.1628 56.9803,14.0949 56.9803,29.3544 0,12.8361 -23.0034,24.5179 -34.4047,17.4716 -4.0108,-2.4789 -51.0498,-7.7727 -104.5312,-11.7644 -86.2324,-6.4359 -198.6811,-1.8134 -287.2909,11.8099 -16.4097,2.523 -35.1898,1.0976 -41.7336,-3.1675 z m 176.588,-71.191 c -4.0424,-28.3335 -32.5599,-30.8238 -32.5599,-2.8433 0,16.4989 4.3728,21.9363 17.6421,21.9363 13.3992,0 16.9867,-4.5917 14.9178,-19.093 z m 67.6631,-28.4427 c -8.3897,-8.3895 -23.5022,4.4899 -23.5022,20.0295 0,13.0126 1.1212,12.9893 14.4106,-0.2999 7.9257,-7.9259 12.0169,-16.8041 9.0916,-19.7296 z m 65.0934,17.0026 c 8.6456,-22.5301 5.9525,-29.1386 -11.8748,-29.1386 -12.5027,0 -17.0491,5.683 -17.0491,21.3112 0,23.7985 20.6506,29.3869 28.9239,7.8274 z m -18.2683,-57.6818 c 32.4983,-1.4897 7.9636,-39.6532 -25.4924,-39.6532 -23.7597,0 -71.869,33.3631 -64.7408,44.8966 2.8953,4.6849 19.7899,5.4271 40.1567,1.7639 19.3373,-3.4779 41.8717,-6.6311 50.0765,-7.0073 z m -70.5005,-81.9361 c 21.9505,-43.0265 22.4116,-60.6557 1.0061,-38.4632 -15.3108,15.8735 -33.2516,72.2217 -22.9949,72.2217 2.6215,0 12.5165,-15.1913 21.9888,-33.7585 z m 119.1143,-44.9373 c 6.5504,-55.555 -0.8985,-66.7248 -33.0297,-49.5288 -22.4998,12.0418 -22.8566,25.9302 -0.6657,25.9302 9.3769,0 17.049,5.619 17.049,12.4868 0,6.8679 -7.6721,16.5929 -17.049,21.6113 -19.899,10.6496 -22.2886,30.3187 -4.8678,40.0679 11.3772,6.367 12.9793,9.4182 13.6516,25.9972 0.9541,23.5341 20.0176,-35.0561 24.9119,-76.5646 z m -174.3506,8.3684 c 0,-22.2003 -13.2126,-21.8264 -28.235,0.7987 -12.7643,19.224 -12.4816,19.8682 7.4848,17.0491 12.9629,-1.8305 20.7502,-8.5284 20.7502,-17.8478 z m 12.7868,-63.0647 c 0,-14.68 -20.7862,-23.7107 -38.728,-16.8259 -10.117,3.8825 -11.1268,8.8363 -4.3738,21.4546 10.0212,18.725 43.1018,15.1725 43.1018,-4.6287 z"
     id="path3021"
     style="fill:#000000" />
  <g
     transform="translate(-621.63751,-2315.5261)"
     id="layer1" />
  <g
     transform="matrix(0.78003943,0,0,0.78003943,-484.90178,-1186.558)"
     id="text4291"
     style="font-size:444.44442749px;font-style:normal;font-weight:normal;line-height:125%;letter-spacing:0px;word-spacing:0px;fill:#c20f51;fill-opacity:1;stroke:none;font-family:Sans">
    <path
       d="m 1021.1352,4903.5461 32.4653,0 79.0147,149.0777 0,-149.0777 23.3941,0 0,178.201 -32.4653,0 -79.0147,-149.0777 0,149.0777 -23.3941,0 0,-178.201"
       id="path3396"
       style="font-size:244.44445801px;fill:#c20f51" />
    <path
       d="m 1254.8374,4963.4636 c -11.7766,2e-4 -21.0865,4.6153 -27.9296,13.8455 -6.8433,9.1509 -10.2648,21.7232 -10.2648,37.717 0,15.994 3.3818,28.6061 10.1454,37.8364 6.8431,9.1508 16.1928,13.7262 28.049,13.7261 11.697,1e-4 20.9671,-4.6151 27.8104,-13.8454 6.843,-9.2303 10.2646,-21.8026 10.2647,-37.7171 -10e-5,-15.8347 -3.4217,-28.3672 -10.2647,-37.5976 -6.8433,-9.3098 -16.1134,-13.9647 -27.8104,-13.9649 m 0,-18.6197 c 19.0972,1e-4 34.0964,6.2067 44.9979,18.6197 10.9012,12.4133 16.3518,29.6008 16.352,51.5625 -2e-4,21.8823 -5.4508,39.0698 -16.352,51.5625 -10.9015,12.4132 -25.9007,18.6198 -44.9979,18.6198 -19.1768,0 -34.2159,-6.2066 -45.1171,-18.6198 -10.8218,-12.4927 -16.2327,-29.6802 -16.2327,-51.5625 0,-21.9617 5.4109,-39.1492 16.2327,-51.5625 10.9012,-12.413 25.9403,-18.6196 45.1171,-18.6197"
       id="path3398"
       style="font-size:244.44445801px;fill:#c20f51" />
    <path
       d="m 1463.594,5001.0613 0,80.6858 -21.9618,0 0,-79.9697 c -2e-4,-12.6518 -2.4669,-22.1208 -7.4002,-28.4071 -4.9336,-6.286 -12.3337,-9.4291 -22.2005,-9.4292 -11.8563,1e-4 -21.206,3.7797 -28.0491,11.339 -6.8432,7.5594 -10.2648,17.8639 -10.2647,30.9136 l 0,75.5534 -22.0812,0 0,-133.6806 22.0812,0 0,20.7682 c 5.2516,-8.0366 11.4185,-14.0443 18.5004,-18.023 7.1614,-3.9784 15.3971,-5.9677 24.707,-5.9678 15.3573,1e-4 26.9747,4.7744 34.8525,14.3229 7.8774,9.4691 11.8162,23.434 11.8164,41.8945"
       id="path3400"
       style="font-size:244.44445801px;fill:#c20f51" />
    <path
       d="m 1496.5367,5005.0001 64.3337,0 0,19.5747 -64.3337,0 0,-19.5747"
       id="path3402"
       style="font-size:244.44445801px;fill:#c20f51" />
    <path
       d="m 1621.0267,4923.3595 0,66.9596 30.3168,0 c 11.2195,1e-4 19.8929,-2.9043 26.02,-8.7131 6.1269,-5.8086 9.1904,-14.0841 9.1905,-24.8264 -10e-5,-10.6625 -3.0636,-18.8981 -9.1905,-24.707 -6.1271,-5.8086 -14.8005,-8.713 -26.02,-8.7131 l -30.3168,0 m -24.1103,-19.8134 54.4271,0 c 19.9724,2e-4 35.0513,4.5358 45.2366,13.6068 10.2646,8.9917 15.397,22.2006 15.3971,39.6267 -10e-5,17.5855 -5.1325,30.874 -15.3971,39.8655 -10.1853,8.9917 -25.2642,13.4875 -45.2366,13.4874 l -30.3168,0 0,71.6146 -24.1103,0 0,-178.201"
       id="path3404"
       style="font-size:244.44445801px;fill:#c20f51" />
    <path
       d="m 1793.2598,5014.5487 c -17.7446,10e-5 -30.0384,2.0292 -36.8815,6.0873 -6.8433,4.0582 -10.2648,10.9809 -10.2648,20.7682 0,7.7981 2.5463,14.0046 7.6389,18.6198 5.1721,4.5356 12.1744,6.8034 21.0069,6.8034 12.1744,0 21.922,-4.2969 29.2427,-12.8907 7.4,-8.6732 11.1001,-20.1714 11.1002,-34.4943 l 0,-4.8937 -21.8424,0 m 43.8042,-9.0712 0,76.2696 -21.9618,0 0,-20.2908 c -5.0131,8.1163 -11.2595,14.124 -18.7391,18.023 -7.4799,3.8194 -16.6306,5.7291 -27.4523,5.7291 -13.6864,0 -24.5877,-3.8194 -32.704,-11.4583 -8.0368,-7.7184 -12.0551,-18.023 -12.0551,-30.9136 0,-15.039 5.013,-26.378 15.0391,-34.017 10.1055,-7.6388 25.1446,-11.4582 45.1171,-11.4583 l 30.7943,0 0,-2.1484 c -10e-5,-10.1055 -3.3421,-17.9036 -10.026,-23.3941 -6.6046,-5.5699 -15.9145,-8.3549 -27.9297,-8.3551 -7.639,2e-4 -15.0789,0.9152 -22.3199,2.7453 -7.2411,1.8302 -14.2036,4.5755 -20.8876,8.2356 l 0,-20.2908 c 8.0367,-3.1031 15.8348,-5.4107 23.3941,-6.9227 7.5593,-1.5913 14.9197,-2.387 22.0812,-2.3871 19.3358,1e-4 33.7781,5.0131 43.3268,15.039 9.5485,10.0262 14.3228,25.2244 14.3229,45.5946"
       id="path3406"
       style="font-size:244.44445801px;fill:#c20f51" />
    <path
       d="m 1959.883,4968.596 c -2.4668,-1.4322 -5.1722,-2.4666 -8.1163,-3.1033 -2.8646,-0.716 -6.0475,-1.0741 -9.5486,-1.0742 -12.4132,1e-4 -21.9619,4.0583 -28.6458,12.1745 -6.6045,8.0368 -9.9067,19.6145 -9.9067,34.7331 l 0,70.421 -22.0812,0 0,-133.6806 22.0812,0 0,20.7682 c 4.6151,-8.1162 10.6228,-14.1238 18.023,-18.023 7.4001,-3.9784 16.3917,-5.9677 26.9748,-5.9678 1.5118,1e-4 3.1828,0.1194 5.0131,0.358 1.83,0.1593 3.8591,0.4378 6.0872,0.8355 l 0.1193,22.5586"
       id="path3408"
       style="font-size:244.44445801px;fill:#c20f51" />
    <path
       d="m 2004.8809,4910.1108 0,37.9557 45.2365,0 0,17.0682 -45.2365,0 0,72.5694 c -1e-4,10.9014 1.472,17.9037 4.4162,21.0069 3.0237,3.1034 9.1109,4.655 18.2617,4.655 l 22.5586,0 0,18.3811 -22.5586,0 c -16.9488,0 -28.6458,-3.1431 -35.0911,-9.4293 -6.4454,-6.3657 -9.668,-17.9036 -9.668,-34.6137 l 0,-72.5694 -16.1133,0 0,-17.0682 16.1133,0 0,-37.9557 22.0812,0"
       id="path3410"
       style="font-size:244.44445801px;fill:#c20f51" />
    <path
       d="m 2079.1214,4948.0665 21.9618,0 0,133.6806 -21.9618,0 0,-133.6806 m 0,-52.0399 21.9618,0 0,27.8103 -21.9618,0 0,-27.8103"
       id="path3412"
       style="font-size:244.44445801px;fill:#c20f51" />
    <path
       d="m 2232.1379,4952.0053 0,20.7682 c -6.2067,-3.1827 -12.652,-5.5699 -19.336,-7.1614 -6.6841,-1.5913 -13.6068,-2.3871 -20.7682,-2.3872 -10.9014,1e-4 -19.0973,1.6712 -24.5877,5.013 -5.4109,3.3422 -8.1163,8.3552 -8.1163,15.0391 0,5.0927 1.9495,9.1111 5.8485,12.0551 3.899,2.8647 11.7368,5.6099 23.5135,8.2357 l 7.5195,1.671 c 15.596,3.3421 26.6565,8.0766 33.1815,14.2036 6.6043,6.0475 9.9065,14.5219 9.9066,25.4232 -1e-4,12.4132 -4.9335,22.2403 -14.8003,29.4813 -9.7874,7.241 -23.2748,10.8615 -40.4623,10.8615 -7.1615,0 -14.6412,-0.7161 -22.4392,-2.1484 -7.7185,-1.3527 -15.8746,-3.4216 -24.4683,-6.2066 l 0,-22.6779 c 8.1163,4.2173 16.1132,7.4001 23.9909,9.5486 7.8775,2.0688 15.6756,3.1033 23.3941,3.1033 10.3442,0 18.3014,-1.7506 23.8715,-5.2518 5.5699,-3.5807 8.3549,-8.5937 8.355,-15.039 -10e-5,-5.9679 -2.0291,-10.5432 -6.0872,-13.7262 -3.9787,-3.1828 -12.7713,-6.2463 -26.378,-9.1905 l -7.6389,-1.7904 c -13.6068,-2.8645 -23.4339,-7.2409 -29.4814,-13.1293 -6.0474,-5.9678 -9.0712,-14.1239 -9.0711,-24.4683 -1e-4,-12.5723 4.456,-22.28 13.368,-29.1233 8.912,-6.843 21.5639,-10.2646 37.9557,-10.2647 8.1163,1e-4 15.7552,0.5969 22.9167,1.7903 7.1614,1.1937 13.7658,2.9841 19.8134,5.3711"
       id="path3414"
       style="font-size:244.44445801px;fill:#c20f51" />
    <path
       d="m 2335.1436,5014.5487 c -17.7446,10e-5 -30.0384,2.0292 -36.8816,6.0873 -6.8432,4.0582 -10.2647,10.9809 -10.2647,20.7682 0,7.7981 2.5462,14.0046 7.6389,18.6198 5.1721,4.5356 12.1744,6.8034 21.0069,6.8034 12.1744,0 21.922,-4.2969 29.2426,-12.8907 7.4001,-8.6732 11.1002,-20.1714 11.1003,-34.4943 l 0,-4.8937 -21.8424,0 m 43.8042,-9.0712 0,76.2696 -21.9618,0 0,-20.2908 c -5.0131,8.1163 -11.2595,14.124 -18.7391,18.023 -7.4799,3.8194 -16.6306,5.7291 -27.4523,5.7291 -13.6864,0 -24.5877,-3.8194 -32.704,-11.4583 -8.0368,-7.7184 -12.0551,-18.023 -12.0551,-30.9136 0,-15.039 5.013,-26.378 15.039,-34.017 10.1056,-7.6388 25.1447,-11.4582 45.1172,-11.4583 l 30.7943,0 0,-2.1484 c -10e-5,-10.1055 -3.3421,-17.9036 -10.026,-23.3941 -6.6046,-5.5699 -15.9145,-8.3549 -27.9297,-8.3551 -7.639,2e-4 -15.0789,0.9152 -22.3199,2.7453 -7.2411,1.8302 -14.2036,4.5755 -20.8876,8.2356 l 0,-20.2908 c 8.0367,-3.1031 15.8348,-5.4107 23.3941,-6.9227 7.5593,-1.5913 14.9197,-2.387 22.0812,-2.3871 19.3358,1e-4 33.7781,5.0131 43.3268,15.039 9.5485,10.0262 14.3228,25.2244 14.3229,45.5946"
       id="path3416"
       style="font-size:244.44445801px;fill:#c20f51" />
    <path
       d="m 2535.4257,5001.0613 0,80.6858 -21.9618,0 0,-79.9697 c -1e-4,-12.6518 -2.4668,-22.1208 -7.4002,-28.4071 -4.9335,-6.286 -12.3337,-9.4291 -22.2005,-9.4292 -11.8563,1e-4 -21.2059,3.7797 -28.0491,11.339 -6.8432,7.5594 -10.2648,17.8639 -10.2647,30.9136 l 0,75.5534 -22.0812,0 0,-133.6806 22.0812,0 0,20.7682 c 5.2517,-8.0366 11.4185,-14.0443 18.5004,-18.023 7.1614,-3.9784 15.3971,-5.9677 24.7071,-5.9678 15.3572,1e-4 26.9747,4.7744 34.8524,14.3229 7.8775,9.4691 11.8163,23.434 11.8164,41.8945"
       id="path3418"
       style="font-size:244.44445801px;fill:#c20f51" />
    <path
       d="m 2765.0698,4909.3946 0,23.5135 c -9.1509,-4.3763 -17.7844,-7.6387 -25.9006,-9.7873 -8.1165,-2.1483 -15.9543,-3.2225 -23.5135,-3.2227 -13.1294,2e-4 -23.2748,2.5465 -30.4362,7.6389 -7.0819,5.0927 -10.6229,12.3338 -10.6228,21.7231 -1e-4,7.8777 2.3473,13.8456 7.0421,17.9036 4.7742,3.9787 13.7658,7.2014 26.9748,9.668 l 14.5616,2.9839 c 17.9831,3.4217 31.2318,9.4692 39.7461,18.1424 8.5936,8.5938 12.8905,20.1317 12.8907,34.6137 -2e-4,17.2671 -5.8089,30.3567 -17.4263,39.2687 -11.538,8.912 -28.4868,13.368 -50.8463,13.368 -8.4347,0 -17.4263,-0.9548 -26.9748,-2.8645 -9.4691,-1.9098 -19.2962,-4.7346 -29.4814,-8.4744 l 0,-24.8264 c 9.7873,5.4905 19.3757,9.6282 28.7652,12.4132 9.3894,2.785 18.6197,4.1775 27.691,4.1775 13.7658,0 24.3886,-2.7054 31.8685,-8.1163 7.4796,-5.4109 11.2195,-13.1293 11.2196,-23.1554 -1e-4,-8.7529 -2.7056,-15.596 -8.1163,-20.5295 -5.3314,-4.9334 -14.1241,-8.6335 -26.3781,-11.1003 l -14.681,-2.8646 c -17.9832,-3.5806 -30.9932,-9.1904 -39.0299,-16.8294 -8.0368,-7.6388 -12.0551,-18.2616 -12.0551,-31.8685 0,-15.7551 5.5302,-28.1682 16.5907,-37.2396 11.14,-9.071 26.4575,-13.6066 45.9527,-13.6068 8.3549,2e-4 16.8691,0.7562 25.5425,2.2678 8.6732,1.5121 17.5455,3.7799 26.6168,6.8034"
       id="path3420"
       style="font-size:244.44445801px;fill:#c20f51" />
    <path
       d="m 2864.2559,4963.4636 c -11.7766,2e-4 -21.0865,4.6153 -27.9296,13.8455 -6.8433,9.1509 -10.2648,21.7232 -10.2648,37.717 0,15.994 3.3818,28.6061 10.1454,37.8364 6.8431,9.1508 16.1928,13.7262 28.049,13.7261 11.697,1e-4 20.9671,-4.6151 27.8104,-13.8454 6.843,-9.2303 10.2646,-21.8026 10.2647,-37.7171 -1e-4,-15.8347 -3.4217,-28.3672 -10.2647,-37.5976 -6.8433,-9.3098 -16.1134,-13.9647 -27.8104,-13.9649 m 0,-18.6197 c 19.0972,1e-4 34.0964,6.2067 44.9979,18.6197 10.9012,12.4133 16.3518,29.6008 16.352,51.5625 -2e-4,21.8823 -5.4508,39.0698 -16.352,51.5625 -10.9015,12.4132 -25.9007,18.6198 -44.9979,18.6198 -19.1768,0 -34.2159,-6.2066 -45.1171,-18.6198 -10.8218,-12.4927 -16.2327,-29.6802 -16.2327,-51.5625 0,-21.9617 5.4109,-39.1492 16.2327,-51.5625 10.9012,-12.413 25.9403,-18.6196 45.1171,-18.6197"
       id="path3422"
       style="font-size:244.44445801px;fill:#c20f51" />
    <path
       d="m 2961.8905,4896.0266 21.9618,0 0,185.7205 -21.9618,0 0,-185.7205"
       id="path3424"
       style="font-size:244.44445801px;fill:#c20f51" />
    <path
       d="m 3029.6857,4948.0665 21.9618,0 0,133.6806 -21.9618,0 0,-133.6806 m 0,-52.0399 21.9618,0 0,27.8103 -21.9618,0 0,-27.8103"
       id="path3426"
       style="font-size:244.44445801px;fill:#c20f51" />
    <path
       d="m 3185.4474,4968.3573 0,-72.3307 21.9618,0 0,185.7205 -21.9618,0 0,-20.0521 c -4.6152,7.9572 -10.4638,13.8853 -17.5455,17.7843 -7.0024,3.8194 -15.437,5.7291 -25.3039,5.7291 -16.1531,0 -29.3222,-6.4453 -39.5073,-19.3359 -10.1057,-12.8906 -15.1585,-29.8394 -15.1585,-50.8464 0,-21.0068 5.0528,-37.9556 15.1585,-50.8463 10.1851,-12.8905 23.3542,-19.3358 39.5073,-19.3359 9.8669,1e-4 18.3015,1.9496 25.3039,5.8485 7.0817,3.8195 12.9303,9.7079 17.5455,17.6649 m -74.8372,46.6688 c 0,16.1532 3.3022,28.8448 9.9067,38.0751 6.684,9.1508 15.8347,13.7262 27.4522,13.7262 11.6174,0 20.7682,-4.5754 27.4523,-13.7262 6.6839,-9.2303 10.0259,-21.9219 10.026,-38.0751 -1e-4,-16.1529 -3.3421,-28.8048 -10.026,-37.9557 -6.6841,-9.2302 -15.8349,-13.8454 -27.4523,-13.8455 -11.6175,1e-4 -20.7682,4.6153 -27.4522,13.8455 -6.6045,9.1509 -9.9067,21.8028 -9.9067,37.9557"
       id="path3428"
       style="font-size:244.44445801px;fill:#c20f51" />
    <path
       d="m 3313.3987,5014.5487 c -17.7446,10e-5 -30.0384,2.0292 -36.8815,6.0873 -6.8432,4.0582 -10.2648,10.9809 -10.2648,20.7682 0,7.7981 2.5463,14.0046 7.6389,18.6198 5.1721,4.5356 12.1744,6.8034 21.007,6.8034 12.1744,0 21.9219,-4.2969 29.2426,-12.8907 7.4,-8.6732 11.1001,-20.1714 11.1002,-34.4943 l 0,-4.8937 -21.8424,0 m 43.8042,-9.0712 0,76.2696 -21.9618,0 0,-20.2908 c -5.0131,8.1163 -11.2595,14.124 -18.7391,18.023 -7.4798,3.8194 -16.6306,5.7291 -27.4523,5.7291 -13.6864,0 -24.5877,-3.8194 -32.704,-11.4583 -8.0367,-7.7184 -12.0551,-18.023 -12.0551,-30.9136 0,-15.039 5.013,-26.378 15.0391,-34.017 10.1055,-7.6388 25.1446,-11.4582 45.1172,-11.4583 l 30.7942,0 0,-2.1484 c -1e-4,-10.1055 -3.3421,-17.9036 -10.026,-23.3941 -6.6046,-5.5699 -15.9144,-8.3549 -27.9297,-8.3551 -7.6389,2e-4 -15.0789,0.9152 -22.3199,2.7453 -7.241,1.8302 -14.2036,4.5755 -20.8876,8.2356 l 0,-20.2908 c 8.0368,-3.1031 15.8348,-5.4107 23.3941,-6.9227 7.5593,-1.5913 14.9197,-2.387 22.0812,-2.3871 19.3358,1e-4 33.7781,5.0131 43.3268,15.039 9.5485,10.0262 14.3228,25.2244 14.3229,45.5946"
       id="path3430"
       style="font-size:244.44445801px;fill:#c20f51" />
    <path
       d="m 3480.0221,4968.596 c -2.4668,-1.4322 -5.1723,-2.4666 -8.1163,-3.1033 -2.8647,-0.716 -6.0476,-1.0741 -9.5486,-1.0742 -12.4133,1e-4 -21.9619,4.0583 -28.6459,12.1745 -6.6045,8.0368 -9.9067,19.6145 -9.9067,34.7331 l 0,70.421 -22.0811,0 0,-133.6806 22.0811,0 0,20.7682 c 4.6151,-8.1162 10.6228,-14.1238 18.023,-18.023 7.4001,-3.9784 16.3917,-5.9677 26.9749,-5.9678 1.5117,1e-4 3.1827,0.1194 5.013,0.358 1.83,0.1593 3.8591,0.4378 6.0872,0.8355 l 0.1194,22.5586"
       id="path3432"
       style="font-size:244.44445801px;fill:#c20f51" />
    <path
       d="m 3503.2968,4948.0665 21.9618,0 0,133.6806 -21.9618,0 0,-133.6806 m 0,-52.0399 21.9618,0 0,27.8103 -21.9618,0 0,-27.8103"
       id="path3434"
       style="font-size:244.44445801px;fill:#c20f51" />
    <path
       d="m 3592.815,4910.1108 0,37.9557 45.2366,0 0,17.0682 -45.2366,0 0,72.5694 c 0,10.9014 1.4721,17.9037 4.4163,21.0069 3.0236,3.1034 9.1109,4.655 18.2617,4.655 l 22.5586,0 0,18.3811 -22.5586,0 c -16.9489,0 -28.6459,-3.1431 -35.0912,-9.4293 -6.4453,-6.3657 -9.668,-17.9036 -9.6679,-34.6137 l 0,-72.5694 -16.1133,0 0,-17.0682 16.1133,0 0,-37.9557 22.0811,0"
       id="path3436"
       style="font-size:244.44445801px;fill:#c20f51" />
    <path
       d="m 3722.6762,5094.1603 c -6.2067,15.9143 -12.2541,26.2984 -18.1423,31.1523 -5.8884,4.8538 -13.766,7.2808 -23.6329,7.2808 l -17.5455,0 0,-18.3811 12.8906,0 c 6.0474,0 10.7421,-1.4323 14.0842,-4.2968 3.342,-2.8646 7.042,-9.6282 11.1003,-20.2908 l 3.9388,-10.0261 -54.0691,-131.5321 23.2748,0 41.7752,104.5573 41.7751,-104.5573 23.2748,0 -58.724,146.0938"
       id="path3438"
       style="font-size:244.44445801px;fill:#c20f51" />
    <path
       d="m 3887.7479,4903.5461 24.2296,0 0,108.2574 c -10e-5,19.0973 3.4613,32.8632 10.3841,41.2977 6.9227,8.3551 18.1423,12.5326 33.6588,12.5326 15.4368,0 26.6167,-4.1775 33.5395,-12.5326 6.9226,-8.4345 10.384,-22.2004 10.3841,-41.2977 l 0,-108.2574 24.2296,0 0,111.2413 c -1e-4,23.235 -5.7691,40.7806 -17.3068,52.6368 -11.4585,11.8561 -28.4072,17.7842 -50.8464,17.7842 -22.5188,0 -39.5472,-5.9281 -51.085,-17.7842 -11.4584,-11.8562 -17.1876,-29.4018 -17.1875,-52.6368 l 0,-111.2413"
       id="path3440"
       style="font-size:244.44445801px;fill:#c20f51" />
    <path
       d="m 4179.6966,5001.0613 0,80.6858 -21.9618,0 0,-79.9697 c -2e-4,-12.6518 -2.4669,-22.1208 -7.4002,-28.4071 -4.9336,-6.286 -12.3337,-9.4291 -22.2005,-9.4292 -11.8563,1e-4 -21.206,3.7797 -28.0491,11.339 -6.8432,7.5594 -10.2648,17.8639 -10.2647,30.9136 l 0,75.5534 -22.0812,0 0,-133.6806 22.0812,0 0,20.7682 c 5.2516,-8.0366 11.4185,-14.0443 18.5004,-18.023 7.1614,-3.9784 15.3971,-5.9677 24.707,-5.9678 15.3573,1e-4 26.9747,4.7744 34.8525,14.3229 7.8774,9.4691 11.8162,23.434 11.8164,41.8945"
       id="path3442"
       style="font-size:244.44445801px;fill:#c20f51" />
    <path
       d="m 4223.7394,4948.0665 21.9618,0 0,133.6806 -21.9618,0 0,-133.6806 m 0,-52.0399 21.9618,0 0,27.8103 -21.9618,0 0,-27.8103"
       id="path3444"
       style="font-size:244.44445801px;fill:#c20f51" />
    <path
       d="m 4343.3358,4963.4636 c -11.7767,2e-4 -21.0866,4.6153 -27.9297,13.8455 -6.8432,9.1509 -10.2648,21.7232 -10.2648,37.717 0,15.994 3.3818,28.6061 10.1454,37.8364 6.8432,9.1508 16.1928,13.7262 28.0491,13.7261 11.6969,1e-4 20.967,-4.6151 27.8103,-13.8454 6.8431,-9.2303 10.2647,-21.8026 10.2648,-37.7171 -1e-4,-15.8347 -3.4217,-28.3672 -10.2648,-37.5976 -6.8433,-9.3098 -16.1134,-13.9647 -27.8103,-13.9649 m 0,-18.6197 c 19.0971,1e-4 34.0964,6.2067 44.9978,18.6197 10.9012,12.4133 16.3519,29.6008 16.352,51.5625 -1e-4,21.8823 -5.4508,39.0698 -16.352,51.5625 -10.9014,12.4132 -25.9007,18.6198 -44.9978,18.6198 -19.1769,0 -34.2159,-6.2066 -45.1172,-18.6198 -10.8218,-12.4927 -16.2327,-29.6802 -16.2327,-51.5625 0,-21.9617 5.4109,-39.1492 16.2327,-51.5625 10.9013,-12.413 25.9403,-18.6196 45.1172,-18.6197"
       id="path3446"
       style="font-size:244.44445801px;fill:#c20f51" />
    <path
       d="m 4552.0923,5001.0613 0,80.6858 -21.9618,0 0,-79.9697 c -1e-4,-12.6518 -2.4668,-22.1208 -7.4002,-28.4071 -4.9335,-6.286 -12.3337,-9.4291 -22.2005,-9.4292 -11.8562,1e-4 -21.2059,3.7797 -28.049,11.339 -6.8432,7.5594 -10.2648,17.8639 -10.2648,30.9136 l 0,75.5534 -22.0812,0 0,-133.6806 22.0812,0 0,20.7682 c 5.2517,-8.0366 11.4185,-14.0443 18.5004,-18.023 7.1614,-3.9784 15.3971,-5.9677 24.7071,-5.9678 15.3572,1e-4 26.9747,4.7744 34.8524,14.3229 7.8775,9.4691 11.8163,23.434 11.8164,41.8945"
       id="path3448"
       style="font-size:244.44445801px;fill:#c20f51" />
  </g>
  <g
     transform="matrix(0.78003943,0,0,0.78003943,-2935.8751,-1106.6657)"
     id="g3387">
    <path
       d="m 5197.238,3857.9435 c 938.965,65.1286 1176.1189,-464.2757 1246.2886,-811.1452 51.8132,-256.128 -55.577,-508.2726 -259.0276,-608.178 -121.7082,-62.064 -240.6875,-49.3049 -344.5151,5.1193 -39.3989,20.5375 -98.1949,65.5778 -135.4154,103.7339 l -65.7828,67.4367 -7.7496,-41.3088 c -11.8584,-63.2112 1.5287,-191.5233 28.3631,-271.852 67.2169,-201.2127 258.3987,-398.7187 485.7265,-501.7941 159.7449,-72.4318 388.4067,-96.4218 564.172,-59.1899 197.0028,41.7305 394.63,184.1352 515.8756,371.7257 239.0585,369.8701 203.165,940.6942 -86.7391,1379.4348 -69.2671,104.8288 -194.6506,240.2749 -287.4703,310.5411 -187.0182,141.5766 -426.7839,219.4361 -685.7919,259.6293 -245.8914,37.0107 -612.328,0.78 -967.934,-204.1528 z"
       id="path5093"
       style="fill:url(#linearGradient3391);fill-opacity:1" />
    <path
       d="m 6772.4004,1635.6592 c -938.9652,-65.1286 -1176.119,464.2757 -1246.2887,811.1452 -51.8132,256.128 55.577,508.2726 259.0277,608.178 121.709,62.0662 240.6861,49.3058 344.5151,-5.1193 39.3989,-20.5375 98.1949,-65.5778 135.4154,-103.734 l 65.7828,-67.4367 7.7496,41.3088 c 11.8584,63.2112 -1.5287,191.5234 -28.3632,271.8521 -67.2168,201.2127 -258.3986,398.7187 -485.7264,501.7942 -159.745,72.4317 -388.4068,96.4217 -564.1721,59.1899 -197.0029,-41.7306 -394.6301,-184.1353 -515.8757,-371.7258 -239.0585,-369.8702 -203.165,-940.6942 86.7391,-1379.4348 69.2672,-104.8288 194.6506,-240.2749 287.4703,-310.5411 187.0183,-141.5766 426.784,-219.4361 685.7921,-259.6291 245.8915,-37.0108 612.328,-0.7795 967.934,204.1526 z"
       id="path5095"
       style="fill:url(#linearGradient3393);fill-opacity:1" />
  </g>
</svg>
