<?xml version="1.0" encoding="UTF-8" standalone="no"?>
<!-- Created with Inkscape (http://www.inkscape.org/) -->

<svg
   xmlns:dc="http://purl.org/dc/elements/1.1/"
   xmlns:cc="http://creativecommons.org/ns#"
   xmlns:rdf="http://www.w3.org/1999/02/22-rdf-syntax-ns#"
   xmlns:svg="http://www.w3.org/2000/svg"
   xmlns="http://www.w3.org/2000/svg"
   xmlns:sodipodi="http://sodipodi.sourceforge.net/DTD/sodipodi-0.dtd"
   xmlns:inkscape="http://www.inkscape.org/namespaces/inkscape"
   version="1.1"
   width="1080"
   height="480"
   viewBox="0 0 12000 5333.333"
   id="svg2902"
   inkscape:version="0.47 r22583"
   sodipodi:docname="Emble PFP.svg">
  <metadata
     id="metadata2904">
    <rdf:RDF>
      <cc:Work
         rdf:about="">
        <dc:format>image/svg+xml</dc:format>
        <dc:type
           rdf:resource="http://purl.org/dc/dcmitype/StillImage" />
      </cc:Work>
    </rdf:RDF>
  </metadata>
  <sodipodi:namedview
     pagecolor="#ffffff"
     bordercolor="#666666"
     borderopacity="1"
     objecttolerance="10"
     gridtolerance="10"
     guidetolerance="10"
     inkscape:pageopacity="0"
     inkscape:pageshadow="2"
     inkscape:window-width="1920"
     inkscape:window-height="1014"
     id="namedview2902"
     showgrid="false"
     inkscape:zoom="0.472"
     inkscape:cx="549.45001"
     inkscape:cy="177.98717"
     inkscape:window-x="-4"
     inkscape:window-y="-4"
     inkscape:window-maximized="1"
     inkscape:current-layer="svg2902" />
  <defs
     id="defs2982">
    <inkscape:perspective
       sodipodi:type="inkscape:persp3d"
       inkscape:vp_x="0 : 250 : 1"
       inkscape:vp_y="0 : 1000 : 0"
       inkscape:vp_z="1098.9 : 250 : 1"
       inkscape:persp3d-origin="549.45001 : 166.66667 : 1"
       id="perspective2906" />
  </defs>
  <path
     d="m 23.54049,-3.4670864 11998.13551,0 0,5385.7627864 -11998.13551,0 0,-5385.7627864 z"
     id="path2904"
     style="fill:#fe6407" />
  <path
     d="m 1486,864.22173 29,5 49,42 47,69.99995 -6,45.99992 -33,32 -165,54.9999 -44,28 -22,31.9999 -298,64 -76,41.9999 -57,7 -13,-9 -26,19 -70,8 -36,37 28,53.9999 21,0 134,53 11,12 19.99998,2 24.00002,-16 23,2 21,21 35,10 116,2 231,-41 63,-56 86,-42.9999 211,-84.9999 29,-46 77,-61.9999 51,-5 41,28.9999 33,-23.9999 118,-3 83,2 46,-30 68,-79.9999 106,5 40,-5 59,-58.99992 0,-24.99995 -24,-52 -57,-41 -25,2 -51,37 -26,42 -81,-8 -227,-92.9999 -14,-55.0001 -45,-75 -22,-14 -88,-12 -69,-18 -43,-25 -39,13 -90,-4 -136,-9 -64,15 -32,17 -17,33 5,29 22,30 28,22 31,33.0001 10,42.9999 z"
     id="path2906"
     style="fill:#ffffff" />
  <path
     d="m 1312,1694.221 22,-37 315,-49 19,-14.9999 9,10.9999 -25,26 -33,96.9999 -29,51 -43,17 -45,58.9999 -41,17 -60,-35 -58,-65.9999 -31,-75.9999 z"
     id="path2908"
     style="fill:#ffffff" />
  <path
     d="m 1431,2241.2205 61,-50 23,0 0,-28 186,-93.9999 26,3 20,-23 155,-85.9999 110,-163.9998 77,-141.9999 11,-57.9999 31,-32 45,-143.9999 57,-34 149,31 38,66 4,33.9999 -21,32 -37,33 -57,164.9998 25,108.9999 23,27 -26,44 -77,29.9999 -39,40 -77,21 -64,53.9999 -17,154.9999 15,38.9999 37,25 53,7 111,0 48,6 35,24 83,116 -62,64 -123,5 -78,-10 -68,9 -63,31 -55,51 -39,74 -17,84 4,57 30,83 -21,85 -13,91 2,94 10,96 12,52 -4,62 -23,71 -31,39 -11,56 6,99 -6,84 -27,-22 -44,-91 -42,-90 -36,-34 -6,-47 14,-65 32,-57 35,-95 1,-51 -13,-34 9,-55 34,17 12,-33 -19,-11 -40,0 -25,-25 10,-58 55,-94 2,-59 -26,-54 -39,-53 -36,-33 -165,6 -139,34 -44,44 -69,31 -73,6 -58,13 -34,24 -17,34 -107,-21 -127,-9 -22,-11 5,-54 210,-125 130,-9 117,-73 136,-68 80,6 51,-19 18,-25 28,-7 34,-35 4,-35 -15,-29 -27,-16 -89,27 -88,35 -52,-4 -60,12 -34,-18 -69,-11 -78,4 -41,-9 -30,-21 -12,-17 -64,-14 0,-24 12,-13 41,-4 24,-19.9999 74,35.9999 75,2 16,9 23,0 9,-30 26,-21.9999 92,-19 z"
     id="path2910"
     style="fill:#ffffff" />
  <path
     d="m 1158,3325.2204 34,-43 25,-7 69,-46 39,-58 14,-42 19,-12 28,6 69,50 10,64 -12,50 -26,26 -24,22 -22,52 -2,64 -13,16 -68,12 -22,-10 -12,-18 0,-23 -36,-21 -34,-16 -29,-26 -7,-40 z"
     id="path2912"
     style="fill:#ffffff" />
  <path
     d="m 3914,769.22173 -41,-16 -28,16 -51,-2 -26,-30 -59,-10 -20,10 -15,-17 -87,-15 -58,20 -75,-36 -23,18 -87,13 -79,-18 -46,86 -73,17.0001 -38,29 -25,-6 -3,24.9999 -23,8 -19,-15 -13,15 -30,-2 -53,31 -88,89.99995 -58,17 -9,12.99992 10,13 26,6 0,59.9999 24,35 2,49.9999 -20,32 -1,102.9999 16,36 0,32.9999 9,19 -8,18 -1,71 -12,27.9999 0,39 -32,35 -2,14.9999 18,21 -2,102.9999 -24,25 -7,26 32,68.9999 -6,33 -7,12 7,27 0,15.9999 -13,15 2,9 17,10 -8,26 -34,43 16,96.9999 -24,19 -9,-9 -7,36.9999 24,26 16,59.9999 -9,43 -26,21 -1,9 11,13 -4,69 -24,22 8,18 -25,38 11,15 -32,29 -50,55 -26,15 -19,-1 -17,-27 -23,-1 -66,24 -39,-10 3,44 -23,22 -14,-2 -16,23 13,37 -2,31 20,16 0,26 -18,32 38,2 39,41 65,5 66,-37 31,8 41,-25 17,11 6,-33 86,-59 34,3 75,-68 37,14 19,6 -7,28 -18,2 6,26 -36,49 -1,24 -24,-12 -23,0 -17,17 17,20 -9,25 -22,33 -4,38 -39,84 -146,153 -1,24 -35,38 -80,126 -81,69 -4,36 -13,35 -28,41 31,30 74,-66 32,-4 75,-83 33,-9 2,-18 41,17 26,-60 11,22 25,-13 23,-34 33,-3 21,-25 7,-80 28,-23 9,-37 106,-110 -15,-24 27,-32 -4,-52 5,-20 39,-11 36,-71 41,-49 0,-16 11,-5 95,-162 97,-69 96,-18 34,-47 76,-36 26,0 54,-28 10,-21 24,4 26,51 -22,21 -1,18 64,57 2,66 -15,21 9,24 2,71 -32,41 8,45 33,18 18,61 -5,25 24,65 7,69 6,20 -23,31 0,22 -27,11 15,66 25,8 4,37 38,42 -10,18 91,95 29,-1 14,22 21,-3 3,-22 11,-19 -16,-15 16,-62 42,-54 -9,-11 20,-32 8,-50 -29,-53 -19,1 -13,-54 -22,-9 -11,-28 0,-61 21,-58 32,-25 33,-32 1,-25 -25,-28 -21,0 -9,-46 0,-59 -28,-45 -19,-67 0,-69 19,-48 5,-29 -25,-45 6,-9 -17,-45 28,-44 -16,-17.9999 -30,-107.9999 18,-25 -8,-17 20,-41 -18,-61.9999 31,-76.9999 -13,-55 -11,6 -11,-10 10,-24 -21,-31.9999 -28,8.9999 0,-12.9999 24,-10 7,-83 18,13 28,-30.9999 -40,-68 10,-36.9999 11,-6 -15,-23 26,-178.9999 -26,-36.9999 6,-49 41,-33 -26,-26.9999 10,-6 12,-25 -25,-43 36,-79.9999 -4,-97.99982 24,-58.99995 8,-69 -55,-69 -1,-23 z m -900,275.99987 47,57.9999 8,47 -6,100.9999 -34,61.9999 0,33 19,11 -3,47.9999 18,22 110,-24 30,6 34,-12 31,-26.9999 53,-13 55,-4 39,-37 31,1 24,-22 42,-3 56,-43.9999 24,-4 12,-34 2,-50.9999 43,0 8,-32 -14,-9 40,-24 0,-27.9999 -22,-51 18,-27.99992 -3,-28.00005 -26,3 -78,-47.9999 -30,0 -64,-33 -41,3 -13,-16 -24,-3 -18,19 -66,18 -70,0 -30,30 -35,-3 -13,21 -45,7.9999 -6,22.00005 -29,5 -41,25.99992 0,28 -21,-10 -12,16 z m 5,501.9995 59,-36 187,-2 13,22 15,-19 261,-62.9999 29,22 41,-4 24,-22 32,6 7,26 13,7 -24,82.9999 -41,1 -19,17 7,22.9999 19,-4 28,12 18,59 -12,25 -109,52.9999 -22,0 -24,28 -71,-3 -22,36 -91,1 -6,7.9999 -38,10 -5,20 -40,14 -25,0 -54,32 -8,34 -53,0 -23,22.9999 16,27 72,8 87,-10 45,12 28,2 32,-27 16,-15 39,-12 127,15 14,-9 26,12 55,-2 -1,92.9999 -26,43 -101,114.9999 -26,0 -17,14 -20,3 -54,51.9999 -54,4 -47,20 -12,19 -23,-1 -182,85 -26,34 -28,1 -25,-16 34,-29 -3,-25 18,-19 -2,-51 -16,-22 0,-51.9999 -12,-14 10,-71.9999 20,-21 -16,-41 15,-52.9999 -44,-50 1,-26 18,-14.9999 6,-32 -22,-46 16,-52.9999 2,-49 14,-15 -10,-107.9999 10,-11 -1,-23.9999 -19,-48 z"
     id="path2914"
     style="fill:#ffffff;fill-rule:evenodd" />
  <path
     d="m 2305,2979.2204 26,9 12,31 18,-21 62,23 16,42 0,78 -5,63 24,57 -20,35 -49,-10 -45,-41 -30,-39 -24,-17 -9,-39 4,-87 11,-49 9,-35 z"
     id="path2916"
     style="fill:#ffffff" />
  <path
     d="m 4482,2901.2204 16,29 0,79 -13,15 0,24 -36,66 -13,44 11,10 19,0 20,29 -3,18 -1,160 -27,62 15,25 -48,67 -54,92 -148,39 -69,0 -5,20 -19,4 -12,-16 -23,-6 0,26 -24,-2 -2,-18 -33,7 -25,-16 -92,-13 -14,-29 -26,-18 -35,4 -60,-42 -32,-16 -22,-31 -40,-22 -41,3 -33,-51 -13,1 -151,-131 0,-42 -39,-43 27,0 7,-36 -28,-17 -17,-35 -9,-54 -21,-20 -10,-53 13,-59 32,-55 -14,-68 7,-26 -23,-26 33,-28 -17,-50 20,-48 -51,-51 -39,102 -49,45 -6,88 -38,73 -14,94 1,91 42,85 -8,9 0,34 22,21 1,87 -25,25 16,18 19,-2 23,18 -4,38 30,16 -9,48 17,44 41,33 -6,52 11,12 8,-9 25,16 5,31 18,-3 101,84 16,5 4,25 8,-4 26,8 -1,13 40,-4 27,37 59,4 92,24 119,-16 52,9 71,-7 6,15 23,-15 1,23 101,8 25,-24 32,1 -3,-25 17,-16 52,6 112,-18 19,-21 44,6 18,-25 127,-6 16,-26 18,5 -7,-23 6,-24 0,-59 25,-41 -5,-22 6,-33 -44,-72 -7,-88 -22,-12 -22,-54 5,-63 -30,-59 -2,-89 -15,-64 13,-65 -14,-50 -17,2 -7,-14 22,-4 0,-39 11,-25 -41,-31 2,-64 -46,-31 30,126 -21,64 z m -1217,229 19,-21 9,30 18,0 -4,-22 23,-36 9,22 -14,18 10,22 -14,9 13,21 -9,16 8,21 -29,39 -11,-54 22,-6 4,-17 -3,-10 -42,10 8,-30 -17,-12 z"
     id="path2918"
     style="fill:#ffffff;fill-rule:evenodd" />
  <path
     d="m 4947,1215.2214 79,-68.9999 66,26.9999 33,-38.9999 56,-9 64,19 26,-21 73,11 18,-15 60,-3 34,30 50,-27 84,-3 52,-42 83,-2 16,-28.9999 31,33.9999 123,-3 36,-39.9999 104,-5 51,-27 43,0 38,-47.99987 51,26.99995 69,-13.00005 -8,-30.9999 94,-108.9999 25,30.9999 61,-17.9999 0,-30 17,0 32,57.9999 96,17 3,28 33,-3 25,16 38,7 -8,20 18,32.99995 39,12.99992 38,38 -2,30.9999 -29,54 -31,2 -43,58.9999 -20,0 -41,71 4,14.9999 -68,98 -69,9.9999 -52,50 -4,-15 -11,-2 -10,19 -16,-3 -25,26 6,26 -4,37.9999 -29,68 27,66.9999 15,8 -9,19 22,52.9999 23,11 18,31 -6,27 22,32.9999 21,-1 37,46 142,-14 63,4 16,-12 -3,-20 35,-24.9999 0,-34 80,25 113,-39 79,-43 10,-21.9999 110,0 39,-25 34,-46 84,-7 18,-59.9999 18,-31 -21,-114.9999 8,-31 -15,-11.9999 21,-18 9,-68 -26,-29.9999 -19,-5 -18,10 -10,-10 15,-55 28,-19 36,39 29,-1 -2,28 12,0 50,55.9999 1,8 27,19 15,49 6,46.9999 26,40 -6,12 64,107.9999 47,16 12,-16 16,0 25,36.9999 5,50 25,26 -29,57.9999 53,56 11,41.9999 -35,76 -62,14.9999 -29,19 -10,60 -17,20 -13,-1 -38,23.9999 -68,-5 -42,-20.9999 12,-33 -44,-98.9999 -56,-53 -2,-30 -17,7 -44,-22.9999 -21,7 -2,17.9999 -22,-8 -40,37 -31,-6 -12,14 -51,-6 -2,8 -15,1 -11,-5 -78,5 -13,-11 -16,2 -8,21 -49,15 -41,28 -20,-8 -17,-1 -24,16.9999 -22,-20.9999 -17,4 -28,37.9999 -95,-6 -17,10 2,23 63,36 -23,10 -11,20.9999 11,23 18,0 65,139.9999 31,5 -19,27 22,-2 12,22 -3,29.9999 24,49 21,3 11,-10 7,42 -11,30 -14,9 4,23 25,-24 27,39 23,12 20,0 7,3 0,17 11,-11 10,6 7,19 60,-1 -49,90 47,24 34,2 17,-13 13,23 -23,38 9,22 22,0 27,18 29,71 30,30 27,4 66,50 12,58 23,6 -6,11 -22,-1 -1,13 68,96 60,58 81,42 18,48 51,8 99,-20 20,-23 56,0 22,-17 11,19 17,-4 17,-16 14,12 25,-1 -12,100 23,38 -2,20 20,9 -2,27 55,2 -5,24 13,16 45,4 30,32 -26,37 8,82 -89,-19 -21,2 -17,20 -3,35 -24,19 -37,5 -40,29 -4,-32 -59,-46 -30,-2 -65,-68 -39,-21 -15,-33 -27,0 -55,-48 -37,-18 -20,3 -12,-18 12,-40 -8,-16 -21,3 -21,-25 2,-33 -16,-5 -9,13 -250,-247 -33,-66 -21,-11 -21,9 -22,-47 -19,16 -61,-88 -11,-91 -27,-26 -17,4 -62,-80 -93,-84 -12,-55 -49,-6 -14,24 -69,-55 -29,-30 -61,14 12,21 -6,51 -186,136 -39,47 -17,1 -59,111 -95,42 -51,49 -3,27 -16,10 -41,4 -24,27 8,27 -36,-4 -16,16 -76,3 -29,56 -18,16 -34,-12 -50,31 -12,23 4,21 -105,39 -32,-9 -16,52 3,16 -21,22 -30,-11 -35,40 -27,-13 -55,47 -43,10 -11,25 -19,-2 -22,49 -57,-8 13,18 -6,12 -113,-98 -3,-24 -32,-35 -14,-66 23,-37 -7,-63 3,-61 15,-13 -9,-31 19,-23 -27,-52 14,-21 -9,-142 18,-30 -1,-22 -20,-16 3,-16 32,-9 21,-22 3,-29 -18,-31 2,-18 9,-12 -21,-64 5,-62 19,-45 -40,-27 6,-32 15,-12 -1,-45.9999 51,-62 -12,-22 20,-107.9999 -10,-28.9999 3,-41 9,-12 -10,-18 5,-32.9999 10,-20 6,-63 -38,-131.9999 50,-77.9999 12,-62.9999 -5,-29 22,-33 7,-78.9999 -15,-20 -28,-5 -3,-21 -15,-2 -90,-73.9999 -28,0 -43,29 -11,-16 6,-36 -16,-36.9999 -42,-38 z m 1016,23 40,-44 -12,-21 14,-14.9999 11,17.9999 60,-44.9999 11,9 18,-13 24,1 12,-5 0,-19 59,-10 4,-18 49,-6 39,40 -50,65.9999 -1,26 11,14 21,3 2,20 -4,13 7,19.9999 -9,18 -26,-2 -15,23 33,52 23,-2 16,6 -13,29.9999 14,17 -8,23 9,26 -15,17 -14,0 -28,35.9999 -51,-36.9999 -26,-3 -35,-39 1,-23 -27,-3 -59,-36.9999 -23,-47 1,-23 -12,-21 -47,-13 -10,-13.9999 6,-18 z m -685,172.9998 50,-13 32,-27.9999 4,-13 22,4 13,-17 -7,-31 31,3 27,-12 12,9 15,0 16,-14 27,0 16,-16 3,-21.9999 53,11.9999 35,-12.9999 79,-5 34,-10 10,19 31,-7 3,22.9999 32,51 58,52.9999 17,0 5,12 -10,6 21,41 -9,16 30,-1 -6,17 49,32.9999 -22,4 23,39 -2,55.9999 -17,25 -35,22 -12,-7 -97,52 -14,-3 -2,18.9999 -22,-23.9999 -26,19.9999 -66,-3.9999 -15,16.9999 7,15 -11,4 -10,19 0,27 35,37.9999 23,3 11,-5 18,2 37,-28.9999 29,-25 28,1 51,24 38,0 52,-3 37,-34 13,1 13,20 22,-25 67,5 18,28 17,-16 28,4 7,24 41,34.9999 13,39 21,17 -3,33 -38,30.9999 -28,6 -32,-41.9999 -44,38.9999 -26,7 -22,-3 -69,72 -40,17.9999 3,14 -54,-3 -53,26 -6,27 -15,-3 -16,15 -36,10 -57,1 -35,16.9999 -9,20 -165,9 -79,25 5,63.9999 58,74 29,8 36,-40 26,-4 45,-24 17,-18 36,8 25,-24.9999 3,-19 -7,-19 24,-4 11,20 23,6 28,-11 35,-34 34,-13 69,2 56,-23 41,-3 25,-8.9999 23,0 24,14.9999 4,-21.9999 39,-32 95,-18 22,6 -11,23 83,-7 16,-28 59,0 -2,37 49,63.9999 65,22 25,35 -15,14 4,92.9999 -18,15 -28,-3 -25,25 -11,0 0,-20 -34,-51 -12,4 -6,17 29,33 -2,22 -19,7 -7,14 -105,117 -13,0 -54,58 -7,33 -38,37 -103,48 -28,27 -41,-4 -61,65 -30,1 -47,36 -38,-5 -169,70 -39,39 -44,0 -25,-22 -15,34 -73,37 -44,4 -62,22 -19,-39 -17,-19 -17,0 -39,-61 -8,-38 8,-195 9,-11 1,-26 -21,-21 -25,-10 19,-28 38,-12 -5,-25 23,-41 40,-31 13,-39 -10,-72 -5,-30 -49,-41 -36,-59.9999 4,-51 -14,-27.9999 1,-40 -12,-27 30,-35.9999 -6,-96.9999 26,-33 -32,-58 3,-22.9999 14,-12 33,-124.9999 43,-42 -27,-45.9999 1,-41 -40,-36 0,-64.9999 -10,0 -19,-16 8,-24 z"
     id="path2920"
     style="fill:#ffffff;fill-rule:evenodd" />
  <path
     d="m 8286,1146.2215 210,34.9999 48,43 37,38 31,11.9999 12,77 -2,75.9999 -27,16 27,35 -48,124.9998 12,44 -28,23 -8,70.9999 12,58 -22,71.9999 -32,43 -21,81.9999 17,11 0,45.9999 -51,81 -73,-15 -54,-51 -35,-116.9999 -22,-77.9999 17,-125.9999 36,-59.9999 -18,-43 28,-110.9999 -13,-31 13,-47.9999 0,-45 14,-17 -14,-153.9998 -46,-91.9999 z"
     id="path2922"
     style="fill:#ffffff" />
  <path
     d="m 8980,861.22173 70,-32.9999 75,125.9999 62,32.99995 54,-6 15,37.99992 -9,47 -34,24.9999 -6,37 24,31 -16,46.9999 -108,-9 -15,-65.9999 -55,-40 -47,-76.9999 -15,-86.99987 5,-66 z"
     id="path2924"
     style="fill:#ffffff" />
  <path
     d="m 8838,1535.2211 63,0 171,-64.9999 89,-3 54,-32 146,-11 121,6 49,-19 -5,23 9,23 -39,27 -79,7.9999 -76,0 -41,16 -26,42 -82,17 -23,2 -46,17 -24,20.9999 -154,-1 -64,-16.9999 -34,-24 -9,-30 z"
     id="path2926"
     style="fill:#ffffff" />
  <path
     d="m 9643,1855.443 190,-21.9999 22,18.9999 -5,19 10,101.9999 -40,68 -58,-16 -32,-4 -18,17 -26,4 -4,20 31,56.9999 2,33 -55,98.9999 107,-24 82,-103.9999 65,-44 9,0 56.9998,-43.9999 0,-30 19,3 35.0002,-48 27,-99.9999 -5,-75.9999 -18,-41 -27,-15.9999 -34,-26 -34,0 -22,9 -16,-6 -27,5 -92,47.9999 -96,27 -17,20 -30,-21 99,-188.9998 9,-45 -11,-39.9999 -56,-65 269,-63.9999 -28,-41 14,-39 -25,-33.9999 13,-94.9999 33,-33 87,-17 -8,-27 100,-65.9999 28,-63.99987 95,-13 110,-114.9999 63,-65.0001 117,20 42,-11 42,-71.9999 -45,-118 -133,-62 -140,10 -27,31 -16,68 -37,47 -13,49 -26,25.9999 -55,97.0001 0,34.9999 -48,21 5,26 -76,60.99995 -11,39.99992 -51,56.9999 -85,57 -47,0 -23,-20 -8,-93.9999 20,-140.99987 -2,-61.9999 42,-146 -32,-100 -111,-67 -209,25 -40,34 51,78 24,117.9999 37,18 5,30.0001 -18,67.9999 9,39 14,10 -2,35.99995 -21,23.99992 14,58 -1,88.9999 -32,143.9998 -1,61 20,34 -4,25.9999 -17,10 47,24 10,35 -36,117.9999 4,51.9999 -28,33 -51,112.9999 -3,21 -54,95.9999 8,38 0,43.9999 13,22 22,0 0,30 14,16.9999 9,-11.9999 4,-27 45,-42 -7,-41.9999 15,-26 26,-3 2,-23 30,-16 27,-22 z"
     id="path2928"
     style="fill:#ffffff" />
  <path
     d="m 10166,1335.2213 30,-22 2,22 -32,0 z"
     id="path2930"
     style="fill:#ffffff" />
  <path
     d="m 10288,1325.2213 47,-24 44,0 22,12 -27,21 -52,0 -34,-9 z"
     id="path2932"
     style="fill:#ffffff" />
  <path
     d="m 11328,1414.2212 -17,-29 5,-35.9999 -21,-24 0,-14 -30,-28 -25,0 -85,-44.9999 -111,5 -39,26.9999 -247,-30.9999 -309,67.9999 2,10 261,-26 244,10 11,17 0,35 26,6 -48,152.9998 -221,141.9999 13,24 20,-3 142,76.9999 4,10 18,0 7,-21 13,15 249,22 96,-22 83,0 48,-55.9999 61,-56 14,-20 -7,-33.9999 -49,-46 -8,-17 7,-21 -10,-19.9999 -21,1 -19,-12 -2,-21 -55,-40 z"
     id="path2934"
     style="fill:#ffffff" />
  <path
     d="m 10685,2576.2204 7,32 -70,72 -14,34 -45,50 -32,44 -27,-29 -26,11 -9,67 -13,88 -56,51 -27,57 -46,66 -60,78 -6,37 16,25 -235,11 -63.0002,0 -61.9998,44 -4,39 21,33 44.9998,47 51.0002,0 3,-17 21,-6 32,2 17,12 54,48 18,11 57,-6 29,19 32,68 -2,38 -29,28 -53,10 -70,15 -84,17 -88,24 -72,53 -54,88 -4,83 -26,34 -33,4 -27,-13 -39,13 -90,60 -32,-1 -70,59 -29,-6 -74,-6 -53,12 -103,15 -224,15 39,-51 62,-29 96,-37 45,-40 11,-44 10,-16 44,-7 58,12 60,28 50,-11 32,-29 -34,-80 -63,-44 -105,15 -106,6 -49,-17 -10,-72 37,3 71,-28 5,-15 89,-50 24,6 62,-41 44,-89 10,-119 -51,-39 -59,4 -17,21 -59,2 -50,25 -57,-61 1,-40 -69,-83 -80,-141 -34,-11 -33,-34 -9,-33 -41,-75 -55,-88 -23,-29 -5,-44 18,-26 70,4 19,48 31,42 73,54 57,71 4,22 19,26 0,28 -14,50 3,67 36,59 122,84 33,9 104,-14 55,-49 67,-34 28,-22 9,-39 -11,-84 -32,-81 -125,-63 -43,-6 -34,7 -27,29 -70,-23 33,-38 17,-29 2,-33 92,-27 96,-50 24,-32 76,-67 5,-40 29,-145 -56,-19 -45,-44 -6,-40 -33,-15 -90,0 -124,23 -43,24 -66,0 -361,135 -130,-13 -17,-37 53,-57 60,-15 184,-14 51,9 110,-70 47,0 35,27 127,-30 36,-59.9999 33,-20 80,52 186,5.9999 58,-33.9999 220,-7 26.9998,29 48.0002,2 116,-45 113,16 46,27 24,35.9999 -16,16 -45,3 -144,46 -84,-2 -61,-13 -29,12 -34,0 -6,25 44,155 50,82 36,15 30,-12 -2,32 -32,32 -36.0002,5 -20.9998,26 -4,31 -86,51 -51,63 -17,60 3,43 -16,37 13,75 31,70 110,26 41,-1 57,23 55,-16 37,44 28,0 67,-64 23,-3 48,-48 31,-52 18,-135 17,-131 -3,-50 8,-33 16,-13 -9,-21 3,-56 33,-128 -10,-102 22,-17 82,34 80,-13 30,16 9,25 -11,41 37,50 -1,19 -30,22 10,20 37,-8 z m -93,-6 29,16 1,22 -43,28 -13,-19 17,-20 9,-27 z"
     id="path2936"
     style="fill:#ffffff;fill-rule:evenodd" />
  <path
     d="m 9952,3910.2204 25,-15 24,-69 38,-15 51,19 28,34 134,-2 43,20 21,25 16,3 21,-18 26,22 15,-14 0,33 -252,14 -59,2 -92.0002,-22 -38.9998,-17 z"
     id="path2938"
     style="fill:#ffffff" />
  <path
     d="m 8370,4600.4426 2,-48 52,-14 111,2 65,-48 71,0 46,58 18,-24 95,0 -20,66 -42,43 -33,84 -66,80 -69,-2 -44,48 -37,-16 6,-151 -28,-46 -46,-28 -81,-4 z"
     id="path2940"
     style="fill:#ffffff" />
  <path
     d="m 10113,4544.2204 26,-60 123,-18 77,26 50,-46 73,32 -2,48 -121,76 -65,4 -115,-56 -46,-6 z"
     id="path2942"
     style="fill:#ffffff" />
  <path
     d="m 10599,4474.2204 -8,-36 133,-44 76,8 23,52 104,4 65,110 -10,36 -46,16 -121,0 -91,-90 -47,-2 -36,-10 -2,-26 -40,-18 z"
     id="path2944"
     style="fill:#ffffff" />
  <path
     d="m 9221,4530.2204 4,-42 41,-40 14,-32 80,0 31,-16 94,-4 43,46 -8,136 -43,28 -84,0 -87,-48 -85,-28 z"
     id="path2946"
     style="fill:#ffffff" />
  <path
     d="m 1207,4200.2204 0,206 63,0 18,0 15,-1 15,-2 12,-3 12,-3 9,-3 8,-4 7,-5 5,-7 5,-7 4,-9 3,-10 3,-11 2,-12 1,-13 0,-14 0,-13 -1,-13 -2,-12 -3,-10 -3,-9 -3,-9 -4,-6 -5,-6 -5,-6 -7,-5 -8,-4 -9,-3 -10,-3 -11,-2 -12,-1 -13,0 -86,0 z m 86,-70 24,1 22,1 21,3 18,5 17,5 15,7 12,8 11,9 9,11 8,12 7,14 5,16 5,17 3,19 1,21 1,23 -1,21 -1,21 -3,18 -5,18 -5,15 -7,15 -8,13 -9,11 -10,10 -12,9 -13,7 -14,6 -16,4 -18,4 -18,1 -21,1 -104,0 0,278 -83,0 0,-624 169,0 z"
     id="path2948"
     style="fill:#ffffff;fill-rule:evenodd" />
  <path
     d="m 1558,4754.2204 0,-624 312,0 0,68 -229,0 0,200 221,0 0,70 -221,0 0,218 229,0 0,68 -312,0 z"
     id="path2950"
     style="fill:#ffffff" />
  <path
     d="m 2345,4450.2204 0,24 -1,22 0,21 -1,20 -1,18 -2,17 -1,15 -2,13 -2,13 -2,11 -3,12 -3,10 -3,10 -3,10 -3,8 -4,7 -6,10 -7,10 -8,8 -8,9 -8,7 -9,7 -9,6 -10,5 -11,5 -12,5 -11,4 -13,2 -13,3 -13,1 -14,1 -14,0 -12,0 -11,-1 -11,-1 -11,-2 -11,-1 -10,-3 -10,-2 -10,-3 -9,-4 -8,-4 -8,-5 -8,-5 -7,-5 -7,-6 -7,-6 -6,-7 -7,-8 -7,-9 -6,-9 -5,-11 -5,-11 -4,-11 -4,-13 -3,-13 -1,-7 -2,-7 -1,-8 -1,-9 -1,-9 -1,-10 -1,-10 0,-11 -1,-12 -1,-12 0,-13 0,-13 -1,-14 0,-14 0,-15 0,-15 0,-13 0,-14 0,-12 1,-12 0,-12 0,-11 1,-11 0,-11 1,-9 0,-10 1,-9 1,-8 0,-8 1,-8 1,-7 1,-6 1,-12 2,-12 3,-11 3,-10 3,-10 4,-9 3,-9 4,-8 6,-10 7,-9 7,-8 8,-8 8,-7 9,-7 10,-6 10,-5 11,-5 12,-4 12,-4 12,-3 13,-2 14,-1 14,-1 14,0 11,0 12,1 11,1 10,1 10,2 10,3 10,2 9,3 10,4 9,5 8,5 8,5 8,6 7,6 6,6 6,7 7,8 6,9 6,9 6,10 5,12 5,11 4,13 3,13 1,7 1,8 2,8 1,9 0,9 1,10 1,11 1,11 0,12 1,12 0,13 0,14 1,14 0,15 0,16 0,16 z m -83,-8 0,-19 0,-18 -1,-18 -1,-17 0,-15 -1,-15 -2,-14 -1,-14 -2,-12 -2,-11 -2,-11 -2,-10 -3,-8 -3,-8 -3,-7 -3,-6 -7,-11 -8,-9 -9,-8 -11,-7 -11,-5 -13,-3 -14,-2 -15,-1 -7,0 -7,0 -6,1 -7,1 -7,1 -6,1 -6,1 -6,2 -5,3 -5,4 -4,3 -5,4 -4,4 -4,5 -4,4 -3,5 -4,7 -3,7 -3,7 -3,8 -3,8 -2,8 -2,8 -1,9 -2,11 -1,13 -2,16 -1,18 -1,20 0,22 -1,25 0,26 0,21 1,20 0,19 1,17 1,15 1,14 1,12 1,11 1,9 1,8 1,9 1,7 2,8 2,7 2,6 3,6 3,7 3,6 4,7 5,6 4,6 6,6 5,5 6,4 6,3 7,2 7,3 7,1 8,2 8,1 8,1 9,0 15,-1 14,-2 13,-4 11,-5 11,-6 9,-7 8,-9 7,-10 3,-6 3,-7 3,-9 3,-9 2,-10 2,-10 2,-12 2,-13 1,-13 2,-14 1,-15 0,-16 1,-16 1,-18 0,-18 0,-19 0,-3 z"
     id="path2952"
     style="fill:#ffffff;fill-rule:evenodd" />
  <path
     d="m 2534,4200.2204 0,206 63,0 18,0 15,-1 15,-2 12,-3 12,-3 9,-3 8,-4 7,-5 5,-7 5,-7 4,-9 3,-10 3,-11 2,-12 1,-13 0,-14 0,-13 -1,-13 -2,-12 -3,-10 -3,-9 -3,-9 -4,-6 -5,-6 -5,-6 -7,-5 -8,-4 -9,-3 -10,-3 -11,-2 -12,-1 -13,0 -86,0 z m 86,-70 24,1 22,1 21,3 18,5 17,5 15,7 12,8 11,9 9,11 8,12 7,14 5,16 5,17 3,19 1,21 1,23 -1,21 -1,21 -3,18 -5,18 -5,15 -7,15 -8,13 -9,11 -10,10 -12,9 -13,7 -14,6 -16,4 -18,4 -18,1 -21,1 -104,0 0,278 -83,0 0,-624 169,0 z"
     id="path2954"
     style="fill:#ffffff;fill-rule:evenodd" />
  <path
     d="m 2885,4754.2204 0,-624 83,0 0,551 211,0 0,73 -294,0 z"
     id="path2956"
     style="fill:#ffffff" />
  <path
     d="m 3251,4754.2204 0,-624 312,0 0,68 -229,0 0,200 221,0 0,70 -221,0 0,218 229,0 0,68 -312,0 z"
     id="path2958"
     style="fill:#ffffff" />
  <path
     d="m 3858,4754.2204 0,-624 299,0 0,68 -216,0 0,200 205,0 0,70 -205,0 0,286 -83,0 z"
     id="path2960"
     style="fill:#ffffff" />
  <path
     d="m 4253,4754.2204 0,-624 83,0 0,624 -83,0 z"
     id="path2962"
     style="fill:#ffffff" />
  <path
     d="m 4531,4400.2204 59,0 16,0 15,-1 14,-2 13,-3 12,-3 11,-5 10,-5 8,-7 7,-7 7,-8 5,-9 4,-10 4,-11 2,-12 2,-13 0,-13 0,-11 -1,-11 -2,-10 -3,-9 -3,-8 -4,-9 -5,-7 -5,-7 -6,-6 -8,-5 -8,-4 -9,-3 -10,-3 -11,-2 -11,-1 -12,0 -91,0 0,205 z m 80,-270 24,1 22,1 20,3 19,4 18,6 16,6 14,8 13,8 10,9 9,11 8,12 7,14 5,15 4,16 2,18 1,19 0,15 -2,15 -2,13 -3,13 -4,12 -5,11 -6,11 -6,9 -7,9 -7,9 -9,8 -10,7 -10,6 -12,5 -13,5 -13,3 12,2 11,3 11,3 9,4 8,4 7,5 7,6 5,6 6,8 5,10 4,11 3,12 3,13 2,14 1,15 0,16 0,3 0,4 0,4 0,4 0,5 0,4 0,5 0,5 0,9 -1,8 -2,6 0,5 0,9 1,9 0,9 1,8 1,9 0,8 1,8 1,8 1,8 2,8 1,7 2,8 1,7 2,8 2,7 2,7 -85,0 -3,-11 -2,-12 -3,-15 -1,-17 -2,-18 -1,-21 -1,-22 0,-25 0,-8 0,-7 -1,-7 0,-7 -1,-7 -1,-6 0,-5 0,-5 0,-12 -1,-11 -2,-11 -2,-10 -3,-8 -3,-8 -3,-7 -4,-5 -4,-5 -6,-4 -5,-3 -7,-3 -7,-3 -8,-2 -9,-1 -9,0 -98,0 0,286 -83,0 0,-624 163,0 z"
     id="path2964"
     style="fill:#ffffff;fill-rule:evenodd" />
  <path
     d="m 4895,4574.2204 88,0 0,13 0,14 1,13 2,13 3,11 3,10 4,9 5,9 5,7 5,6 7,6 7,4 9,4 9,3 10,1 12,2 12,0 10,0 11,-2 9,-1 10,-3 9,-4 9,-4 9,-6 8,-6 6,-7 6,-7 5,-8 4,-9 3,-8 2,-9 2,-9 0,-10 -2,-14 -5,-15 -9,-15 -13,-15 -16,-16 -20,-17 -23,-18 -26,-18 -8,-4 -7,-5 -6,-4 -5,-2 -22,-14 -19,-13 -17,-13 -16,-12 -13,-11 -11,-11 -9,-11 -7,-9 -6,-9 -6,-10 -4,-10 -4,-11 -3,-11 -1,-12 -2,-12 0,-13 1,-17 2,-17 4,-15 6,-15 8,-14 9,-13 10,-12 12,-11 13,-11 14,-9 15,-8 17,-7 16,-5 18,-4 19,-2 20,-1 21,1 19,2 18,3 17,5 15,6 15,7 13,9 12,9 10,11 9,13 8,13 6,15 5,16 3,17 2,18 1,19 0,15 -85,0 0,-13 0,-11 -1,-11 -2,-11 -3,-9 -3,-10 -4,-8 -5,-8 -6,-7 -5,-6 -7,-5 -8,-4 -8,-4 -9,-3 -10,-2 -10,-2 -10,0 -11,0 -10,2 -9,1 -9,3 -9,4 -8,4 -7,6 -7,6 -7,6 -5,6 -5,7 -3,8 -3,7 -2,9 -1,8 0,9 2,15 6,16 9,16 14,17 17,18 21,18 25,20 28,20 6,3 5,3 5,3 5,2 4,3 4,2 4,3 3,2 18,12 16,12 14,10 14,11 11,10 9,10 8,9 6,9 6,8 6,8 4,9 4,9 3,11 1,10 2,11 0,12 -1,20 -2,19 -4,17 -6,17 -8,15 -9,15 -10,12 -12,12 -12,10 -15,9 -15,7 -17,6 -19,5 -19,4 -21,2 -22,1 -22,-1 -20,-1 -19,-4 -17,-4 -16,-6 -15,-7 -14,-9 -12,-10 -11,-11 -9,-13 -8,-14 -7,-16 -5,-17 -4,-18 -2,-19 -1,-21 0,-1 0,-1 0,-3 0,-3 0,-3 2,-3 1,-2 0,-3 z"
     id="path2966"
     style="fill:#ffffff" />
  <path
     d="m 5479,4754.2204 0,-559 -154,0 0,-65 385,0 0,65 -151,0 0,559 -80,0 z"
     id="path2968"
     style="fill:#ffffff" />
  <path
     d="m 6068,4200.2204 0,206 63,0 18,0 15,-1 15,-2 12,-3 12,-3 9,-3 8,-4 7,-5 5,-7 5,-7 4,-9 3,-10 3,-11 2,-12 1,-13 0,-14 0,-13 -1,-13 -2,-12 -3,-10 -3,-9 -3,-9 -4,-6 -5,-6 -5,-6 -7,-5 -8,-4 -9,-3 -10,-3 -11,-2 -12,-1 -13,0 -86,0 z m 86,-70 24,1 22,1 21,3 18,5 17,5 15,7 12,8 11,9 9,11 8,12 7,14 5,16 5,17 3,19 1,21 1,23 -1,21 -1,21 -3,18 -5,18 -5,15 -7,15 -8,13 -9,11 -10,10 -12,9 -13,7 -14,6 -16,4 -18,4 -18,1 -21,1 -104,0 0,278 -83,0 0,-624 169,0 z"
     id="path2970"
     style="fill:#ffffff;fill-rule:evenodd" />
  <path
     d="m 6460,4528.2204 177,0 -86,-299 -91,299 z m 242,226 -42,-151 -221,0 -44,151 -88,0 195,-624 98,0 190,624 -88,0 z"
     id="path2972"
     style="fill:#ffffff;fill-rule:evenodd" />
  <path
     d="m 6941,4400.2204 59,0 16,0 15,-1 14,-2 13,-3 12,-3 11,-5 10,-5 8,-7 7,-7 7,-8 5,-9 4,-10 4,-11 2,-12 2,-13 0,-13 0,-11 -1,-11 -2,-10 -3,-9 -3,-8 -4,-9 -5,-7 -5,-7 -6,-6 -8,-5 -8,-4 -9,-3 -10,-3 -11,-2 -11,-1 -12,0 -91,0 0,205 z m 80,-270 24,1 22,1 20,3 19,4 18,6 16,6 14,8 13,8 10,9 9,11 8,12 7,14 5,15 4,16 2,18 1,19 0,15 -2,15 -2,13 -3,13 -4,12 -5,11 -6,11 -6,9 -7,9 -7,9 -9,8 -10,7 -10,6 -12,5 -13,5 -13,3 12,2 11,3 11,3 9,4 8,4 7,5 7,6 5,6 6,8 5,10 4,11 3,12 3,13 2,14 1,15 0,16 0,3 0,4 0,4 0,4 0,5 0,4 0,5 0,5 0,9 -1,8 -2,6 0,5 0,9 1,9 0,9 1,8 1,9 0,8 1,8 1,8 1,8 2,8 1,7 2,8 1,7 2,8 2,7 2,7 -85,0 -3,-11 -2,-12 -3,-15 -1,-17 -2,-18 -1,-21 -1,-22 0,-25 0,-8 0,-7 -1,-7 0,-7 -1,-7 -1,-6 0,-5 0,-5 0,-12 -1,-11 -2,-11 -2,-10 -3,-8 -3,-8 -3,-7 -4,-5 -4,-5 -6,-4 -5,-3 -7,-3 -7,-3 -8,-2 -9,-1 -9,0 -98,0 0,286 -83,0 0,-624 163,0 z"
     id="path2974"
     style="fill:#ffffff;fill-rule:evenodd" />
  <path
     d="m 7434,4754.2204 0,-559 -154,0 0,-65 385,0 0,65 -151,0 0,559 -80,0 z"
     id="path2976"
     style="fill:#ffffff" />
  <path
     d="m 7834,4754.2204 0,-263 -163,-361 93,0 120,294 124,-294 83,0 -171,372 0,252 -86,0 z"
     id="path2978"
     style="fill:#ffffff" />
</svg>
